<?xml version="1.0" encoding="UTF-8" standalone="no"?>
<!DOCTYPE svg PUBLIC "-//W3C//DTD SVG 1.1//EN" "http://www.w3.org/Graphics/SVG/1.1/DTD/svg11.dtd">
<svg width="100%" height="100%" viewBox="0 0 1255 1246" version="1.1" xmlns="http://www.w3.org/2000/svg" xmlns:xlink="http://www.w3.org/1999/xlink" xml:space="preserve" xmlns:serif="http://www.serif.com/" style="fill-rule:evenodd;clip-rule:evenodd;stroke-linejoin:round;stroke-miterlimit:2;">
    <g id="CAT">
    </g>
    <g id="Artboard1" transform="matrix(1,0,0,1,-469.025,-883.342)">
        <rect x="469.025" y="883.342" width="1254.79" height="1245.81" style="fill:none;"/>
        <clipPath id="_clip1">
            <rect x="469.025" y="883.342" width="1254.79" height="1245.81"/>
        </clipPath>
        <g clip-path="url(#_clip1)">
            <g transform="matrix(1,0,0,1,0.0250274,0.342171)">
                <rect x="465.03" y="880.336" width="1261.29" height="1248.44" style="fill:rgb(255,207,27);"/>
            </g>
            <g transform="matrix(1,0,0,1,0.0250274,0.342171)">
                <g>
                    <path id="T" d="M1259.03,1700.11L1235.36,1699.13L1237.55,1646.51L1237.63,1589.53L1189.44,1590.09C1189.44,1590.09 1188.43,1555.38 1189.39,1547.68C1189.63,1545.75 1191.76,1545.27 1193.71,1545.25C1213.33,1545.03 1285.22,1544.78 1306.16,1545.36C1308.16,1545.42 1310.88,1546.98 1311.09,1548.98C1311.81,1555.78 1311.37,1579.19 1310.84,1585.87C1310.73,1587.29 1309.37,1588.92 1307.94,1589.03C1299.43,1589.67 1259.47,1589.59 1259.47,1589.59L1258.39,1651.75L1259.03,1700.11Z" style="fill:rgb(172,27,125);"/>
                    <path id="A" d="M1331.24,1699.98L1321.56,1700.02C1321.56,1700.02 1322.17,1697.24 1322.64,1695.61C1328.07,1676.86 1355.71,1588.2 1355.71,1588.2C1355.71,1588.2 1369.45,1550.2 1373.26,1542.46C1374.01,1540.95 1378.15,1540.8 1378.84,1542.34C1383.64,1553.07 1402.34,1605.59 1402.34,1605.59L1432.71,1682.07L1440.26,1699.25L1421.4,1699.04L1414.35,1676.23L1402.08,1645.48L1346.83,1645.17L1334.41,1687.18L1331.24,1699.98ZM1396.29,1631.43L1348.74,1632.27C1348.74,1632.27 1369.25,1558.52 1371.7,1561.25C1375.34,1565.3 1396.29,1631.43 1396.29,1631.43Z" style="fill:rgb(172,27,125);"/>
                    <path id="A1" serif:id="A" d="M1061.03,1699.14L1042.99,1699.47C1042.99,1699.47 1093.07,1537.64 1096,1539.33C1098.76,1540.93 1128.87,1608.57 1142.79,1634.94C1154.27,1656.67 1166.68,1675.17 1178.14,1696.86C1178.63,1697.78 1179.3,1700.53 1178.17,1700.67C1174.34,1701.16 1156.78,1700.77 1156.78,1700.77L1135.05,1653.79L1072.57,1654.46L1061.03,1699.14ZM1118.24,1622.92C1114.89,1623.21 1107.36,1623.19 1099.1,1623.3C1092.43,1623.39 1085.05,1623.57 1082.31,1623.4C1081.32,1623.34 1081.31,1621.66 1081.61,1620.72C1084.05,1612.97 1094.36,1576.37 1096.99,1577.14C1100.08,1578.04 1115.05,1612.83 1118.63,1620.48C1118.99,1621.25 1119.08,1622.85 1118.24,1622.92Z" style="fill:rgb(172,27,125);"/>
                    <path id="P" d="M949.001,1699.54L916.106,1700.25L916.077,1637.18L918.246,1547.18C927.429,1546.62 936.613,1546.06 945.805,1545.68C975.203,1544.49 1027.68,1538.99 1034.77,1580.74C1039.3,1607.46 1015.54,1626.05 992.347,1632.22C983.653,1634.54 977.238,1635.21 968.336,1636.52C962.483,1637.38 956.375,1638.29 950.466,1638.01L949.001,1699.54ZM952.703,1554.86L951.388,1627.28C972.29,1627.62 995.159,1625.43 1006.36,1617.19C1010.94,1613.82 1014.09,1609.97 1015.36,1606.65C1016.85,1602.77 1018.1,1594.39 1018,1590.34C1017.85,1584.02 1017.09,1573.32 1012.13,1567.98C1002.97,1558.12 988.838,1556.17 984.335,1555.61C965.062,1553.24 961.154,1554.87 952.703,1554.86Z" style="fill:rgb(172,27,125);"/>
                    <path id="S" d="M1555.96,1562.01L1547.99,1571.19C1532.51,1561.12 1517.42,1552.97 1498.59,1557.67C1488.56,1560.17 1478.66,1564.82 1477.18,1576.39C1474.87,1594.4 1488.76,1604.71 1504,1610.19C1506.09,1610.94 1524.55,1616.03 1534.06,1622.16C1547.65,1630.92 1553.29,1642.65 1554.65,1654.15C1555.8,1663.79 1554.61,1674.65 1548.63,1682.61C1538.84,1695.64 1517.27,1699.67 1512.03,1700.54C1490.4,1704.13 1476.1,1698.91 1471.14,1696.84C1466.77,1695.02 1457.67,1691.34 1452.6,1684.52L1458.06,1677.16C1461.16,1677.99 1462.42,1680.37 1467.3,1682.84C1472.84,1685.65 1478.43,1688.64 1484.47,1690.06C1496.1,1692.8 1512.43,1690.27 1521.88,1682.59C1530.37,1675.69 1533.04,1663.12 1525.68,1654.24C1520.37,1647.85 1507.85,1642.95 1501.78,1639.95C1484.39,1631.37 1483.64,1632.51 1468.41,1619.78C1463.25,1615.47 1456.8,1609.57 1454.4,1599.73C1453.1,1594.38 1453.43,1588.67 1454.08,1583.2C1456.89,1559.53 1483.96,1546.76 1504.63,1544.88C1511.11,1544.29 1518.17,1544.32 1524.56,1545.56C1539.48,1548.47 1547.37,1554.77 1555.96,1562.01Z" style="fill:rgb(172,27,125);"/>
                    <path id="O" d="M1447.09,1438.79C1432.73,1408.04 1430.7,1370.67 1451.58,1342.3C1463.93,1325.52 1479.85,1315.28 1500.9,1313.86C1512.45,1313.08 1526.29,1314.78 1535.09,1319.77C1549.74,1328.08 1559.17,1345.38 1565.45,1360.6C1579.5,1394.64 1573.67,1440.54 1542.69,1463.85C1523.86,1478.02 1489.71,1479.19 1469.88,1466.12C1460.77,1460.12 1451.66,1448.57 1447.09,1438.79ZM1512.77,1327.47C1492.95,1322.12 1477.41,1333.6 1465.04,1347.81C1446.09,1369.58 1448.62,1401.98 1456.38,1427.7C1461.36,1444.18 1474.53,1461.53 1495.7,1463.54C1517.2,1465.58 1532.18,1458.43 1542.87,1439.33C1545.59,1434.47 1547.61,1429.2 1549.19,1423.86C1559.1,1390.45 1552.42,1338.18 1512.77,1327.47Z" style="fill:rgb(172,27,125);"/>
                    <path id="Q" d="M740.995,1461.67C713.555,1482.38 668.168,1477.37 646.668,1450.23C629.908,1429.07 625.198,1401.43 630.967,1375.03C634.891,1357.07 643.004,1341.67 658.022,1330.84C690.184,1307.64 742.131,1314.65 760.03,1350.94C770.896,1372.98 769.067,1404.97 760.953,1429.74C758.891,1436.04 752.154,1450.51 752.154,1450.51L773.302,1473.09L750.577,1473.6L740.995,1461.67ZM732.537,1451.14L710.081,1423.8L728.454,1423.43L741.639,1439.7C744.597,1435.7 747.605,1431.63 749.599,1427.08C751.976,1421.64 753.518,1415.83 754.628,1410.01C757.658,1394.1 755.414,1375.91 749.786,1360.86C737.491,1327.99 697.178,1320.55 669.412,1338.45C659.446,1344.88 650.444,1353.51 645.305,1364.34C632.945,1390.37 637.584,1430.43 659.407,1450.18C672.343,1461.88 689.719,1465.37 706.723,1463.34C711.791,1462.74 716.758,1461.16 721.453,1459.16C724.848,1457.71 727.736,1455.27 730.726,1453.11C731.448,1452.58 732.001,1451.85 732.537,1451.14Z" style="fill:rgb(172,27,125);"/>
                    <path id="R" d="M1310.59,1312.28C1311.28,1336.38 1311.68,1360.5 1311.73,1384.61C1311.82,1426.76 1309.36,1426.65 1311.4,1468.76L1355.28,1468.18C1353.77,1451.76 1352.07,1435.36 1350.61,1418.92C1350.38,1416.24 1350.26,1413.55 1350.2,1410.85C1350.17,1409.05 1349.88,1407.19 1350.35,1405.45C1350.58,1404.62 1351.6,1402.93 1352.16,1403.59C1357.98,1410.47 1367.32,1428.57 1371.65,1436.49C1377.5,1447.17 1383.4,1457.83 1389.22,1468.53L1423.67,1468.42L1381.32,1398.81C1388.33,1391.32 1399.49,1381.14 1402.25,1370.25C1408.05,1347.37 1397.91,1322.22 1374.75,1314.04C1354.79,1306.99 1330.58,1310.65 1310.59,1312.28ZM1350.23,1347.33C1350.54,1357.97 1350.35,1362.93 1350.03,1371.69C1349.89,1375.32 1361.73,1371.09 1363.13,1364.87C1363.39,1363.71 1363.52,1362.53 1363.58,1361.35C1363.84,1355.87 1363.21,1346.97 1356.09,1346.2C1355.09,1346.09 1354.06,1346.09 1353.07,1346.28C1352.08,1346.47 1350.2,1346.32 1350.23,1347.33Z" style="fill:rgb(172,27,125);"/>
                    <g id="T1" serif:id="T" transform="matrix(1,0,0,1,0,1)">
                        <path d="M1184.85,1318.98L1183.52,1457.38L1183.07,1465.04L1260.37,1465.04C1260.37,1465.04 1261.96,1462.01 1261.9,1460.37C1261.5,1450.65 1257.97,1406.72 1257.97,1406.72L1259.3,1319.39L1286.92,1319.4C1286.92,1319.4 1287.51,1318.98 1287.58,1317.97C1287.71,1315.88 1286.92,1307.67 1286.92,1307.67L1158.03,1307.71C1158.03,1307.71 1157.7,1316.24 1158.08,1318.11C1158.23,1318.83 1160.12,1318.89 1160.12,1318.89L1184.85,1318.98Z" style="fill:rgb(172,27,125);"/>
                    </g>
                    <path id="U" d="M878.329,1316.89L923.928,1316.4C923.928,1316.4 924.703,1356.44 924.449,1376.45C924.047,1408.22 923.42,1452.21 888.782,1467.49C884.555,1469.35 880.019,1470.54 875.473,1471.36C865.582,1473.15 852.642,1473.5 842.717,1471.67C838.111,1470.83 833.634,1469.26 829.334,1467.4C824.169,1465.18 813.875,1458.82 809.939,1454.27C791.252,1432.67 798.713,1395.18 798.865,1369.82C798.971,1351.95 798.801,1334.07 798.63,1316.2L846.425,1315.87C846.336,1330.78 846.247,1345.7 846.319,1360.61C846.375,1372.17 846.436,1383.74 846.81,1395.3C847.213,1407.78 843.492,1428.21 862.222,1427.28C878.326,1426.48 877.603,1410.09 878.466,1398.1C879.165,1388.38 879.498,1378.64 879.481,1368.9C879.452,1351.56 878.329,1316.89 878.329,1316.89Z" style="fill:rgb(172,27,125);"/>
                    <path d="M1050.2,1302.08C1044.85,1302.12 1040.99,1295.98 1040.14,1291.36C1039.67,1288.81 1039.36,1286.22 1039.25,1283.63C1039.13,1280.86 1039.29,1278.09 1039.47,1275.32C1039.97,1267.54 1041.84,1250.63 1053.6,1251.99C1078.83,1254.9 1075.17,1301.9 1050.2,1302.08Z" style="fill:rgb(172,27,125);"/>
                    <path d="M1093.29,1336.79C1092,1336.09 1090.88,1335.06 1089.94,1333.94C1080.56,1322.74 1092.4,1309 1099.22,1300.27C1102.51,1296.06 1110.35,1288.28 1116.15,1293.03C1125.13,1300.39 1123.16,1311.36 1119.94,1321.28C1117.25,1329.58 1112.78,1338.46 1102.85,1338.75C1101.05,1338.8 1099.25,1338.6 1097.49,1338.24C1096.04,1337.95 1094.59,1337.51 1093.29,1336.79Z" style="fill:rgb(172,27,125);"/>
                    <path d="M974.24,1324.69C962.323,1330.9 954.462,1315.64 949.916,1307.93C945.37,1300.23 939.711,1284.8 949.082,1279.99C956.821,1276.02 967.981,1287.55 972.526,1295.25C977.072,1302.95 980.487,1321.44 974.24,1324.69Z" style="fill:rgb(172,27,125);"/>
                    <path d="M1010.89,1298.38C1008.23,1299.46 1004.35,1298.57 1001.86,1297.65C991.863,1293.98 990.005,1281.55 989.321,1272.34C989.075,1269.01 988.754,1265.68 988.878,1262.34C989.024,1258.44 989.8,1253.21 994.14,1251.67C998.074,1250.27 1001.8,1253.89 1004.09,1256.4C1011.67,1264.67 1017.14,1275.5 1016.67,1286.96C1016.5,1291.06 1015.26,1296.61 1010.89,1298.38Z" style="fill:rgb(172,27,125);"/>
                    <path d="M972.595,1470.74C985.505,1476.5 1017.58,1437.95 1039.63,1438.93C1061.68,1439.92 1091.12,1478.2 1103.77,1476.01C1116.42,1473.82 1118.65,1443.43 1115.85,1426.58C1112.35,1405.53 1096.78,1368.6 1083.9,1350.33C1073.02,1334.9 1052.77,1318.82 1037.88,1316.87C1022.99,1314.92 1005.52,1325.12 995.911,1337.24C983.691,1352.67 967.763,1386.37 963.877,1408.62C959.991,1430.87 959.686,1464.98 972.595,1470.74ZM1033.26,1407.42C1043.98,1406.99 1059.29,1417.88 1064.93,1413.88C1070.58,1409.87 1070.92,1382.6 1057.98,1366.87C1047.45,1354.07 1040.34,1352.68 1032.54,1352.92C1026.84,1353.1 1018.22,1354.56 1010.24,1365.74C1002.85,1376.09 1001.76,1383.63 999.515,1394.13C996.631,1407.58 999.53,1414.45 1002.34,1415.87C1008.31,1418.88 1022.54,1407.85 1033.26,1407.42Z" style="fill:rgb(172,27,125);"/>
                </g>
            </g>
            <g transform="matrix(1,0,0,1,0.0250274,0.342171)">
                <g transform="matrix(0.746603,0.665269,-0.665269,0.746603,1179.08,-601.098)">
                    <path d="M1257.47,988.774C1254.29,990.32 1251.74,994.003 1249.57,996.533C1248.38,997.923 1245.5,1002.08 1242.9,1002.3C1241.81,1002.39 1240.73,1001.71 1239.86,1001.04C1236.48,998.45 1234.18,993.361 1233.36,989.296C1231.31,979.063 1234.61,964.821 1244.91,960.089C1255.05,955.425 1267.38,961.249 1275.15,971.512C1277.63,974.783 1281.19,978.354 1279.51,982.683C1278.33,985.708 1276.12,986.24 1273.04,986.614C1267.91,987.236 1262.3,986.431 1257.47,988.774Z" style="fill:rgb(246,190,35);"/>
                </g>
                <g transform="matrix(0.746603,0.665269,-0.665269,0.746603,1179.08,-601.098)">
                    <path d="M1227.53,975.759C1226.52,977.392 1223.16,979.298 1220.88,979.721C1218.61,980.144 1216.08,978.61 1214.57,977.265C1213.07,975.92 1212.21,972.596 1212.78,970.607C1213.36,968.561 1214.86,966.315 1217.37,966.027C1219.89,965.739 1224.53,968.507 1226.22,970.129C1227.46,971.32 1228.43,974.294 1227.53,975.759Z" style="fill:rgb(246,190,35);"/>
                </g>
                <g transform="matrix(0.746603,0.665269,-0.665269,0.746603,1179.08,-601.098)">
                    <path d="M1231.83,957.926C1229.87,959.742 1226.63,960.765 1223.98,960.431C1220.49,959.992 1218.5,958.311 1215.91,955.922C1212.69,952.945 1209.63,948.3 1213.31,944.063C1216.54,940.346 1222,940.361 1225.58,942.63C1227.97,944.147 1232.14,949.717 1232.1,951.503C1232.08,952.704 1232.67,957.072 1231.83,957.926Z" style="fill:rgb(246,190,35);"/>
                </g>
                <g transform="matrix(0.746603,0.665269,-0.665269,0.746603,1179.08,-601.098)">
                    <path d="M1249.78,950.164C1245.39,953.92 1241.03,949.038 1238.54,945.68C1234.46,940.183 1235.62,932.506 1240.22,927.68C1242.53,925.264 1246.13,928.129 1247.76,929.896C1251.35,933.808 1252.25,939.623 1251.8,944.723C1251.65,946.36 1251.2,948.951 1249.78,950.164Z" style="fill:rgb(246,190,35);"/>
                </g>
                <g transform="matrix(0.746603,0.665269,-0.665269,0.746603,1179.08,-601.098)">
                    <path d="M1272.95,951.818C1271.03,954.488 1265.67,956.168 1263.83,952.566C1262.19,949.369 1262.39,944.223 1264.5,941.274C1264.7,940.996 1265.02,940.822 1265.34,940.689C1267.67,939.704 1268.83,940.183 1270.48,942.041C1271.86,943.603 1272.82,945.545 1273.26,947.582C1273.55,948.929 1273.83,950.592 1272.95,951.818Z" style="fill:rgb(246,190,35);"/>
                </g>
            </g>
            <g transform="matrix(-0.398303,-0.917254,0.917254,-0.398303,1413.7,2677.55)">
                <g transform="matrix(0.746603,0.665269,-0.665269,0.746603,1179.08,-601.098)">
                    <path d="M1257.47,988.774C1254.29,990.32 1251.74,994.003 1249.57,996.533C1248.38,997.923 1245.5,1002.08 1242.9,1002.3C1241.81,1002.39 1240.73,1001.71 1239.86,1001.04C1236.48,998.45 1234.18,993.361 1233.36,989.296C1231.31,979.063 1234.61,964.821 1244.91,960.089C1255.05,955.425 1267.38,961.249 1275.15,971.512C1277.63,974.783 1281.19,978.354 1279.51,982.683C1278.33,985.708 1276.12,986.24 1273.04,986.614C1267.91,987.236 1262.3,986.431 1257.47,988.774Z" style="fill:rgb(246,190,35);"/>
                </g>
                <g transform="matrix(0.746603,0.665269,-0.665269,0.746603,1179.08,-601.098)">
                    <path d="M1227.53,975.759C1226.52,977.392 1223.16,979.298 1220.88,979.721C1218.61,980.144 1216.08,978.61 1214.57,977.265C1213.07,975.92 1212.21,972.596 1212.78,970.607C1213.36,968.561 1214.86,966.315 1217.37,966.027C1219.89,965.739 1224.53,968.507 1226.22,970.129C1227.46,971.32 1228.43,974.294 1227.53,975.759Z" style="fill:rgb(246,190,35);"/>
                </g>
                <g transform="matrix(0.746603,0.665269,-0.665269,0.746603,1179.08,-601.098)">
                    <path d="M1231.83,957.926C1229.87,959.742 1226.63,960.765 1223.98,960.431C1220.49,959.992 1218.5,958.311 1215.91,955.922C1212.69,952.945 1209.63,948.3 1213.31,944.063C1216.54,940.346 1222,940.361 1225.58,942.63C1227.97,944.147 1232.14,949.717 1232.1,951.503C1232.08,952.704 1232.67,957.072 1231.83,957.926Z" style="fill:rgb(246,190,35);"/>
                </g>
                <g transform="matrix(0.746603,0.665269,-0.665269,0.746603,1179.08,-601.098)">
                    <path d="M1249.78,950.164C1245.39,953.92 1241.03,949.038 1238.54,945.68C1234.46,940.183 1235.62,932.506 1240.22,927.68C1242.53,925.264 1246.13,928.129 1247.76,929.896C1251.35,933.808 1252.25,939.623 1251.8,944.723C1251.65,946.36 1251.2,948.951 1249.78,950.164Z" style="fill:rgb(246,190,35);"/>
                </g>
                <g transform="matrix(0.746603,0.665269,-0.665269,0.746603,1179.08,-601.098)">
                    <path d="M1272.95,951.818C1271.03,954.488 1265.67,956.168 1263.83,952.566C1262.19,949.369 1262.39,944.223 1264.5,941.274C1264.7,940.996 1265.02,940.822 1265.34,940.689C1267.67,939.704 1268.83,940.183 1270.48,942.041C1271.86,943.603 1272.82,945.545 1273.26,947.582C1273.55,948.929 1273.83,950.592 1272.95,951.818Z" style="fill:rgb(246,190,35);"/>
                </g>
            </g>
            <g transform="matrix(-0.864438,-0.50274,0.50274,-0.864438,2313.02,2659.49)">
                <g transform="matrix(0.746603,0.665269,-0.665269,0.746603,1179.08,-601.098)">
                    <path d="M1257.47,988.774C1254.29,990.32 1251.74,994.003 1249.57,996.533C1248.38,997.923 1245.5,1002.08 1242.9,1002.3C1241.81,1002.39 1240.73,1001.71 1239.86,1001.04C1236.48,998.45 1234.18,993.361 1233.36,989.296C1231.31,979.063 1234.61,964.821 1244.91,960.089C1255.05,955.425 1267.38,961.249 1275.15,971.512C1277.63,974.783 1281.19,978.354 1279.51,982.683C1278.33,985.708 1276.12,986.24 1273.04,986.614C1267.91,987.236 1262.3,986.431 1257.47,988.774Z" style="fill:rgb(246,190,35);"/>
                </g>
                <g transform="matrix(0.746603,0.665269,-0.665269,0.746603,1179.08,-601.098)">
                    <path d="M1227.53,975.759C1226.52,977.392 1223.16,979.298 1220.88,979.721C1218.61,980.144 1216.08,978.61 1214.57,977.265C1213.07,975.92 1212.21,972.596 1212.78,970.607C1213.36,968.561 1214.86,966.315 1217.37,966.027C1219.89,965.739 1224.53,968.507 1226.22,970.129C1227.46,971.32 1228.43,974.294 1227.53,975.759Z" style="fill:rgb(246,190,35);"/>
                </g>
                <g transform="matrix(0.746603,0.665269,-0.665269,0.746603,1179.08,-601.098)">
                    <path d="M1231.83,957.926C1229.87,959.742 1226.63,960.765 1223.98,960.431C1220.49,959.992 1218.5,958.311 1215.91,955.922C1212.69,952.945 1209.63,948.3 1213.31,944.063C1216.54,940.346 1222,940.361 1225.58,942.63C1227.97,944.147 1232.14,949.717 1232.1,951.503C1232.08,952.704 1232.67,957.072 1231.83,957.926Z" style="fill:rgb(246,190,35);"/>
                </g>
                <g transform="matrix(0.746603,0.665269,-0.665269,0.746603,1179.08,-601.098)">
                    <path d="M1249.78,950.164C1245.39,953.92 1241.03,949.038 1238.54,945.68C1234.46,940.183 1235.62,932.506 1240.22,927.68C1242.53,925.264 1246.13,928.129 1247.76,929.896C1251.35,933.808 1252.25,939.623 1251.8,944.723C1251.65,946.36 1251.2,948.951 1249.78,950.164Z" style="fill:rgb(246,190,35);"/>
                </g>
                <g transform="matrix(0.746603,0.665269,-0.665269,0.746603,1179.08,-601.098)">
                    <path d="M1272.95,951.818C1271.03,954.488 1265.67,956.168 1263.83,952.566C1262.19,949.369 1262.39,944.223 1264.5,941.274C1264.7,940.996 1265.02,940.822 1265.34,940.689C1267.67,939.704 1268.83,940.183 1270.48,942.041C1271.86,943.603 1272.82,945.545 1273.26,947.582C1273.55,948.929 1273.83,950.592 1272.95,951.818Z" style="fill:rgb(246,190,35);"/>
                </g>
            </g>
            <g transform="matrix(0.139888,-0.990167,0.990167,0.139888,553.908,2499.14)">
                <g transform="matrix(0.746603,0.665269,-0.665269,0.746603,1179.08,-601.098)">
                    <path d="M1257.47,988.774C1254.29,990.32 1251.74,994.003 1249.57,996.533C1248.38,997.923 1245.5,1002.08 1242.9,1002.3C1241.81,1002.39 1240.73,1001.71 1239.86,1001.04C1236.48,998.45 1234.18,993.361 1233.36,989.296C1231.31,979.063 1234.61,964.821 1244.91,960.089C1255.05,955.425 1267.38,961.249 1275.15,971.512C1277.63,974.783 1281.19,978.354 1279.51,982.683C1278.33,985.708 1276.12,986.24 1273.04,986.614C1267.91,987.236 1262.3,986.431 1257.47,988.774Z" style="fill:rgb(246,190,35);"/>
                </g>
                <g transform="matrix(0.746603,0.665269,-0.665269,0.746603,1179.08,-601.098)">
                    <path d="M1227.53,975.759C1226.52,977.392 1223.16,979.298 1220.88,979.721C1218.61,980.144 1216.08,978.61 1214.57,977.265C1213.07,975.92 1212.21,972.596 1212.78,970.607C1213.36,968.561 1214.86,966.315 1217.37,966.027C1219.89,965.739 1224.53,968.507 1226.22,970.129C1227.46,971.32 1228.43,974.294 1227.53,975.759Z" style="fill:rgb(246,190,35);"/>
                </g>
                <g transform="matrix(0.746603,0.665269,-0.665269,0.746603,1179.08,-601.098)">
                    <path d="M1231.83,957.926C1229.87,959.742 1226.63,960.765 1223.98,960.431C1220.49,959.992 1218.5,958.311 1215.91,955.922C1212.69,952.945 1209.63,948.3 1213.31,944.063C1216.54,940.346 1222,940.361 1225.58,942.63C1227.97,944.147 1232.14,949.717 1232.1,951.503C1232.08,952.704 1232.67,957.072 1231.83,957.926Z" style="fill:rgb(246,190,35);"/>
                </g>
                <g transform="matrix(0.746603,0.665269,-0.665269,0.746603,1179.08,-601.098)">
                    <path d="M1249.78,950.164C1245.39,953.92 1241.03,949.038 1238.54,945.68C1234.46,940.183 1235.62,932.506 1240.22,927.68C1242.53,925.264 1246.13,928.129 1247.76,929.896C1251.35,933.808 1252.25,939.623 1251.8,944.723C1251.65,946.36 1251.2,948.951 1249.78,950.164Z" style="fill:rgb(246,190,35);"/>
                </g>
                <g transform="matrix(0.746603,0.665269,-0.665269,0.746603,1179.08,-601.098)">
                    <path d="M1272.95,951.818C1271.03,954.488 1265.67,956.168 1263.83,952.566C1262.19,949.369 1262.39,944.223 1264.5,941.274C1264.7,940.996 1265.02,940.822 1265.34,940.689C1267.67,939.704 1268.83,940.183 1270.48,942.041C1271.86,943.603 1272.82,945.545 1273.26,947.582C1273.55,948.929 1273.83,950.592 1272.95,951.818Z" style="fill:rgb(246,190,35);"/>
                </g>
            </g>
            <g transform="matrix(-0.99573,0.0923163,-0.0923163,-0.99573,2982.85,2071.06)">
                <g transform="matrix(0.746603,0.665269,-0.665269,0.746603,1179.08,-601.098)">
                    <path d="M1257.47,988.774C1254.29,990.32 1251.74,994.003 1249.57,996.533C1248.38,997.923 1245.5,1002.08 1242.9,1002.3C1241.81,1002.39 1240.73,1001.71 1239.86,1001.04C1236.48,998.45 1234.18,993.361 1233.36,989.296C1231.31,979.063 1234.61,964.821 1244.91,960.089C1255.05,955.425 1267.38,961.249 1275.15,971.512C1277.63,974.783 1281.19,978.354 1279.51,982.683C1278.33,985.708 1276.12,986.24 1273.04,986.614C1267.91,987.236 1262.3,986.431 1257.47,988.774Z" style="fill:rgb(246,190,35);"/>
                </g>
                <g transform="matrix(0.746603,0.665269,-0.665269,0.746603,1179.08,-601.098)">
                    <path d="M1227.53,975.759C1226.52,977.392 1223.16,979.298 1220.88,979.721C1218.61,980.144 1216.08,978.61 1214.57,977.265C1213.07,975.92 1212.21,972.596 1212.78,970.607C1213.36,968.561 1214.86,966.315 1217.37,966.027C1219.89,965.739 1224.53,968.507 1226.22,970.129C1227.46,971.32 1228.43,974.294 1227.53,975.759Z" style="fill:rgb(246,190,35);"/>
                </g>
                <g transform="matrix(0.746603,0.665269,-0.665269,0.746603,1179.08,-601.098)">
                    <path d="M1231.83,957.926C1229.87,959.742 1226.63,960.765 1223.98,960.431C1220.49,959.992 1218.5,958.311 1215.91,955.922C1212.69,952.945 1209.63,948.3 1213.31,944.063C1216.54,940.346 1222,940.361 1225.58,942.63C1227.97,944.147 1232.14,949.717 1232.1,951.503C1232.08,952.704 1232.67,957.072 1231.83,957.926Z" style="fill:rgb(246,190,35);"/>
                </g>
                <g transform="matrix(0.746603,0.665269,-0.665269,0.746603,1179.08,-601.098)">
                    <path d="M1249.78,950.164C1245.39,953.92 1241.03,949.038 1238.54,945.68C1234.46,940.183 1235.62,932.506 1240.22,927.68C1242.53,925.264 1246.13,928.129 1247.76,929.896C1251.35,933.808 1252.25,939.623 1251.8,944.723C1251.65,946.36 1251.2,948.951 1249.78,950.164Z" style="fill:rgb(246,190,35);"/>
                </g>
                <g transform="matrix(0.746603,0.665269,-0.665269,0.746603,1179.08,-601.098)">
                    <path d="M1272.95,951.818C1271.03,954.488 1265.67,956.168 1263.83,952.566C1262.19,949.369 1262.39,944.223 1264.5,941.274C1264.7,940.996 1265.02,940.822 1265.34,940.689C1267.67,939.704 1268.83,940.183 1270.48,942.041C1271.86,943.603 1272.82,945.545 1273.26,947.582C1273.55,948.929 1273.83,950.592 1272.95,951.818Z" style="fill:rgb(246,190,35);"/>
                </g>
            </g>
            <g transform="matrix(0.820221,-0.572047,0.572047,0.820221,-487.316,1255.97)">
                <g transform="matrix(0.746603,0.665269,-0.665269,0.746603,1179.08,-601.098)">
                    <path d="M1257.47,988.774C1254.29,990.32 1251.74,994.003 1249.57,996.533C1248.38,997.923 1245.5,1002.08 1242.9,1002.3C1241.81,1002.39 1240.73,1001.71 1239.86,1001.04C1236.48,998.45 1234.18,993.361 1233.36,989.296C1231.31,979.063 1234.61,964.821 1244.91,960.089C1255.05,955.425 1267.38,961.249 1275.15,971.512C1277.63,974.783 1281.19,978.354 1279.51,982.683C1278.33,985.708 1276.12,986.24 1273.04,986.614C1267.91,987.236 1262.3,986.431 1257.47,988.774Z" style="fill:rgb(246,190,35);"/>
                </g>
                <g transform="matrix(0.746603,0.665269,-0.665269,0.746603,1179.08,-601.098)">
                    <path d="M1227.53,975.759C1226.52,977.392 1223.16,979.298 1220.88,979.721C1218.61,980.144 1216.08,978.61 1214.57,977.265C1213.07,975.92 1212.21,972.596 1212.78,970.607C1213.36,968.561 1214.86,966.315 1217.37,966.027C1219.89,965.739 1224.53,968.507 1226.22,970.129C1227.46,971.32 1228.43,974.294 1227.53,975.759Z" style="fill:rgb(246,190,35);"/>
                </g>
                <g transform="matrix(0.746603,0.665269,-0.665269,0.746603,1179.08,-601.098)">
                    <path d="M1231.83,957.926C1229.87,959.742 1226.63,960.765 1223.98,960.431C1220.49,959.992 1218.5,958.311 1215.91,955.922C1212.69,952.945 1209.63,948.3 1213.31,944.063C1216.54,940.346 1222,940.361 1225.58,942.63C1227.97,944.147 1232.14,949.717 1232.1,951.503C1232.08,952.704 1232.67,957.072 1231.83,957.926Z" style="fill:rgb(246,190,35);"/>
                </g>
                <g transform="matrix(0.746603,0.665269,-0.665269,0.746603,1179.08,-601.098)">
                    <path d="M1249.78,950.164C1245.39,953.92 1241.03,949.038 1238.54,945.68C1234.46,940.183 1235.62,932.506 1240.22,927.68C1242.53,925.264 1246.13,928.129 1247.76,929.896C1251.35,933.808 1252.25,939.623 1251.8,944.723C1251.65,946.36 1251.2,948.951 1249.78,950.164Z" style="fill:rgb(246,190,35);"/>
                </g>
                <g transform="matrix(0.746603,0.665269,-0.665269,0.746603,1179.08,-601.098)">
                    <path d="M1272.95,951.818C1271.03,954.488 1265.67,956.168 1263.83,952.566C1262.19,949.369 1262.39,944.223 1264.5,941.274C1264.7,940.996 1265.02,940.822 1265.34,940.689C1267.67,939.704 1268.83,940.183 1270.48,942.041C1271.86,943.603 1272.82,945.545 1273.26,947.582C1273.55,948.929 1273.83,950.592 1272.95,951.818Z" style="fill:rgb(246,190,35);"/>
                </g>
            </g>
            <g transform="matrix(-0.968699,0.248239,-0.248239,-0.968699,2655.04,1696.48)">
                <g transform="matrix(0.746603,0.665269,-0.665269,0.746603,1179.08,-601.098)">
                    <path d="M1257.47,988.774C1254.29,990.32 1251.74,994.003 1249.57,996.533C1248.38,997.923 1245.5,1002.08 1242.9,1002.3C1241.81,1002.39 1240.73,1001.71 1239.86,1001.04C1236.48,998.45 1234.18,993.361 1233.36,989.296C1231.31,979.063 1234.61,964.821 1244.91,960.089C1255.05,955.425 1267.38,961.249 1275.15,971.512C1277.63,974.783 1281.19,978.354 1279.51,982.683C1278.33,985.708 1276.12,986.24 1273.04,986.614C1267.91,987.236 1262.3,986.431 1257.47,988.774Z" style="fill:rgb(246,190,35);"/>
                </g>
                <g transform="matrix(0.746603,0.665269,-0.665269,0.746603,1179.08,-601.098)">
                    <path d="M1227.53,975.759C1226.52,977.392 1223.16,979.298 1220.88,979.721C1218.61,980.144 1216.08,978.61 1214.57,977.265C1213.07,975.92 1212.21,972.596 1212.78,970.607C1213.36,968.561 1214.86,966.315 1217.37,966.027C1219.89,965.739 1224.53,968.507 1226.22,970.129C1227.46,971.32 1228.43,974.294 1227.53,975.759Z" style="fill:rgb(246,190,35);"/>
                </g>
                <g transform="matrix(0.746603,0.665269,-0.665269,0.746603,1179.08,-601.098)">
                    <path d="M1231.83,957.926C1229.87,959.742 1226.63,960.765 1223.98,960.431C1220.49,959.992 1218.5,958.311 1215.91,955.922C1212.69,952.945 1209.63,948.3 1213.31,944.063C1216.54,940.346 1222,940.361 1225.58,942.63C1227.97,944.147 1232.14,949.717 1232.1,951.503C1232.08,952.704 1232.67,957.072 1231.83,957.926Z" style="fill:rgb(246,190,35);"/>
                </g>
                <g transform="matrix(0.746603,0.665269,-0.665269,0.746603,1179.08,-601.098)">
                    <path d="M1249.78,950.164C1245.39,953.92 1241.03,949.038 1238.54,945.68C1234.46,940.183 1235.62,932.506 1240.22,927.68C1242.53,925.264 1246.13,928.129 1247.76,929.896C1251.35,933.808 1252.25,939.623 1251.8,944.723C1251.65,946.36 1251.2,948.951 1249.78,950.164Z" style="fill:rgb(246,190,35);"/>
                </g>
                <g transform="matrix(0.746603,0.665269,-0.665269,0.746603,1179.08,-601.098)">
                    <path d="M1272.95,951.818C1271.03,954.488 1265.67,956.168 1263.83,952.566C1262.19,949.369 1262.39,944.223 1264.5,941.274C1264.7,940.996 1265.02,940.822 1265.34,940.689C1267.67,939.704 1268.83,940.183 1270.48,942.041C1271.86,943.603 1272.82,945.545 1273.26,947.582C1273.55,948.929 1273.83,950.592 1272.95,951.818Z" style="fill:rgb(246,190,35);"/>
                </g>
            </g>
            <g transform="matrix(0.354007,-0.935243,0.935243,0.354007,-643.01,2214.55)">
                <g transform="matrix(0.746603,0.665269,-0.665269,0.746603,1179.08,-601.098)">
                    <path d="M1257.47,988.774C1254.29,990.32 1251.74,994.003 1249.57,996.533C1248.38,997.923 1245.5,1002.08 1242.9,1002.3C1241.81,1002.39 1240.73,1001.71 1239.86,1001.04C1236.48,998.45 1234.18,993.361 1233.36,989.296C1231.31,979.063 1234.61,964.821 1244.91,960.089C1255.05,955.425 1267.38,961.249 1275.15,971.512C1277.63,974.783 1281.19,978.354 1279.51,982.683C1278.33,985.708 1276.12,986.24 1273.04,986.614C1267.91,987.236 1262.3,986.431 1257.47,988.774Z" style="fill:rgb(246,190,35);"/>
                </g>
                <g transform="matrix(0.746603,0.665269,-0.665269,0.746603,1179.08,-601.098)">
                    <path d="M1227.53,975.759C1226.52,977.392 1223.16,979.298 1220.88,979.721C1218.61,980.144 1216.08,978.61 1214.57,977.265C1213.07,975.92 1212.21,972.596 1212.78,970.607C1213.36,968.561 1214.86,966.315 1217.37,966.027C1219.89,965.739 1224.53,968.507 1226.22,970.129C1227.46,971.32 1228.43,974.294 1227.53,975.759Z" style="fill:rgb(246,190,35);"/>
                </g>
                <g transform="matrix(0.746603,0.665269,-0.665269,0.746603,1179.08,-601.098)">
                    <path d="M1231.83,957.926C1229.87,959.742 1226.63,960.765 1223.98,960.431C1220.49,959.992 1218.5,958.311 1215.91,955.922C1212.69,952.945 1209.63,948.3 1213.31,944.063C1216.54,940.346 1222,940.361 1225.58,942.63C1227.97,944.147 1232.14,949.717 1232.1,951.503C1232.08,952.704 1232.67,957.072 1231.83,957.926Z" style="fill:rgb(246,190,35);"/>
                </g>
                <g transform="matrix(0.746603,0.665269,-0.665269,0.746603,1179.08,-601.098)">
                    <path d="M1249.78,950.164C1245.39,953.92 1241.03,949.038 1238.54,945.68C1234.46,940.183 1235.62,932.506 1240.22,927.68C1242.53,925.264 1246.13,928.129 1247.76,929.896C1251.35,933.808 1252.25,939.623 1251.8,944.723C1251.65,946.36 1251.2,948.951 1249.78,950.164Z" style="fill:rgb(246,190,35);"/>
                </g>
                <g transform="matrix(0.746603,0.665269,-0.665269,0.746603,1179.08,-601.098)">
                    <path d="M1272.95,951.818C1271.03,954.488 1265.67,956.168 1263.83,952.566C1262.19,949.369 1262.39,944.223 1264.5,941.274C1264.7,940.996 1265.02,940.822 1265.34,940.689C1267.67,939.704 1268.83,940.183 1270.48,942.041C1271.86,943.603 1272.82,945.545 1273.26,947.582C1273.55,948.929 1273.83,950.592 1272.95,951.818Z" style="fill:rgb(246,190,35);"/>
                </g>
            </g>
            <g transform="matrix(-0.929189,-0.369605,0.369605,-0.929189,1554.45,2547.39)">
                <g transform="matrix(0.746603,0.665269,-0.665269,0.746603,1179.08,-601.098)">
                    <path d="M1257.47,988.774C1254.29,990.32 1251.74,994.003 1249.57,996.533C1248.38,997.923 1245.5,1002.08 1242.9,1002.3C1241.81,1002.39 1240.73,1001.71 1239.86,1001.04C1236.48,998.45 1234.18,993.361 1233.36,989.296C1231.31,979.063 1234.61,964.821 1244.91,960.089C1255.05,955.425 1267.38,961.249 1275.15,971.512C1277.63,974.783 1281.19,978.354 1279.51,982.683C1278.33,985.708 1276.12,986.24 1273.04,986.614C1267.91,987.236 1262.3,986.431 1257.47,988.774Z" style="fill:rgb(246,190,35);"/>
                </g>
                <g transform="matrix(0.746603,0.665269,-0.665269,0.746603,1179.08,-601.098)">
                    <path d="M1227.53,975.759C1226.52,977.392 1223.16,979.298 1220.88,979.721C1218.61,980.144 1216.08,978.61 1214.57,977.265C1213.07,975.92 1212.21,972.596 1212.78,970.607C1213.36,968.561 1214.86,966.315 1217.37,966.027C1219.89,965.739 1224.53,968.507 1226.22,970.129C1227.46,971.32 1228.43,974.294 1227.53,975.759Z" style="fill:rgb(246,190,35);"/>
                </g>
                <g transform="matrix(0.746603,0.665269,-0.665269,0.746603,1179.08,-601.098)">
                    <path d="M1231.83,957.926C1229.87,959.742 1226.63,960.765 1223.98,960.431C1220.49,959.992 1218.5,958.311 1215.91,955.922C1212.69,952.945 1209.63,948.3 1213.31,944.063C1216.54,940.346 1222,940.361 1225.58,942.63C1227.97,944.147 1232.14,949.717 1232.1,951.503C1232.08,952.704 1232.67,957.072 1231.83,957.926Z" style="fill:rgb(246,190,35);"/>
                </g>
                <g transform="matrix(0.746603,0.665269,-0.665269,0.746603,1179.08,-601.098)">
                    <path d="M1249.78,950.164C1245.39,953.92 1241.03,949.038 1238.54,945.68C1234.46,940.183 1235.62,932.506 1240.22,927.68C1242.53,925.264 1246.13,928.129 1247.76,929.896C1251.35,933.808 1252.25,939.623 1251.8,944.723C1251.65,946.36 1251.2,948.951 1249.78,950.164Z" style="fill:rgb(246,190,35);"/>
                </g>
                <g transform="matrix(0.746603,0.665269,-0.665269,0.746603,1179.08,-601.098)">
                    <path d="M1272.95,951.818C1271.03,954.488 1265.67,956.168 1263.83,952.566C1262.19,949.369 1262.39,944.223 1264.5,941.274C1264.7,940.996 1265.02,940.822 1265.34,940.689C1267.67,939.704 1268.83,940.183 1270.48,942.041C1271.86,943.603 1272.82,945.545 1273.26,947.582C1273.55,948.929 1273.83,950.592 1272.95,951.818Z" style="fill:rgb(246,190,35);"/>
                </g>
            </g>
            <g transform="matrix(0.997768,0.066772,-0.066772,0.997768,288.107,358.302)">
                <g transform="matrix(0.746603,0.665269,-0.665269,0.746603,1179.08,-601.098)">
                    <path d="M1257.47,988.774C1254.29,990.32 1251.74,994.003 1249.57,996.533C1248.38,997.923 1245.5,1002.08 1242.9,1002.3C1241.81,1002.39 1240.73,1001.71 1239.86,1001.04C1236.48,998.45 1234.18,993.361 1233.36,989.296C1231.31,979.063 1234.61,964.821 1244.91,960.089C1255.05,955.425 1267.38,961.249 1275.15,971.512C1277.63,974.783 1281.19,978.354 1279.51,982.683C1278.33,985.708 1276.12,986.24 1273.04,986.614C1267.91,987.236 1262.3,986.431 1257.47,988.774Z" style="fill:rgb(246,190,35);"/>
                </g>
                <g transform="matrix(0.746603,0.665269,-0.665269,0.746603,1179.08,-601.098)">
                    <path d="M1227.53,975.759C1226.52,977.392 1223.16,979.298 1220.88,979.721C1218.61,980.144 1216.08,978.61 1214.57,977.265C1213.07,975.92 1212.21,972.596 1212.78,970.607C1213.36,968.561 1214.86,966.315 1217.37,966.027C1219.89,965.739 1224.53,968.507 1226.22,970.129C1227.46,971.32 1228.43,974.294 1227.53,975.759Z" style="fill:rgb(246,190,35);"/>
                </g>
                <g transform="matrix(0.746603,0.665269,-0.665269,0.746603,1179.08,-601.098)">
                    <path d="M1231.83,957.926C1229.87,959.742 1226.63,960.765 1223.98,960.431C1220.49,959.992 1218.5,958.311 1215.91,955.922C1212.69,952.945 1209.63,948.3 1213.31,944.063C1216.54,940.346 1222,940.361 1225.58,942.63C1227.97,944.147 1232.14,949.717 1232.1,951.503C1232.08,952.704 1232.67,957.072 1231.83,957.926Z" style="fill:rgb(246,190,35);"/>
                </g>
                <g transform="matrix(0.746603,0.665269,-0.665269,0.746603,1179.08,-601.098)">
                    <path d="M1249.78,950.164C1245.39,953.92 1241.03,949.038 1238.54,945.68C1234.46,940.183 1235.62,932.506 1240.22,927.68C1242.53,925.264 1246.13,928.129 1247.76,929.896C1251.35,933.808 1252.25,939.623 1251.8,944.723C1251.65,946.36 1251.2,948.951 1249.78,950.164Z" style="fill:rgb(246,190,35);"/>
                </g>
                <g transform="matrix(0.746603,0.665269,-0.665269,0.746603,1179.08,-601.098)">
                    <path d="M1272.95,951.818C1271.03,954.488 1265.67,956.168 1263.83,952.566C1262.19,949.369 1262.39,944.223 1264.5,941.274C1264.7,940.996 1265.02,940.822 1265.34,940.689C1267.67,939.704 1268.83,940.183 1270.48,942.041C1271.86,943.603 1272.82,945.545 1273.26,947.582C1273.55,948.929 1273.83,950.592 1272.95,951.818Z" style="fill:rgb(246,190,35);"/>
                </g>
            </g>
            <g transform="matrix(0.523137,0.852248,-0.852248,0.523137,1736.79,-114.293)">
                <g transform="matrix(0.746603,0.665269,-0.665269,0.746603,1179.08,-601.098)">
                    <path d="M1257.47,988.774C1254.29,990.32 1251.74,994.003 1249.57,996.533C1248.38,997.923 1245.5,1002.08 1242.9,1002.3C1241.81,1002.39 1240.73,1001.71 1239.86,1001.04C1236.48,998.45 1234.18,993.361 1233.36,989.296C1231.31,979.063 1234.61,964.821 1244.91,960.089C1255.05,955.425 1267.38,961.249 1275.15,971.512C1277.63,974.783 1281.19,978.354 1279.51,982.683C1278.33,985.708 1276.12,986.24 1273.04,986.614C1267.91,987.236 1262.3,986.431 1257.47,988.774Z" style="fill:rgb(246,190,35);"/>
                </g>
                <g transform="matrix(0.746603,0.665269,-0.665269,0.746603,1179.08,-601.098)">
                    <path d="M1227.53,975.759C1226.52,977.392 1223.16,979.298 1220.88,979.721C1218.61,980.144 1216.08,978.61 1214.57,977.265C1213.07,975.92 1212.21,972.596 1212.78,970.607C1213.36,968.561 1214.86,966.315 1217.37,966.027C1219.89,965.739 1224.53,968.507 1226.22,970.129C1227.46,971.32 1228.43,974.294 1227.53,975.759Z" style="fill:rgb(246,190,35);"/>
                </g>
                <g transform="matrix(0.746603,0.665269,-0.665269,0.746603,1179.08,-601.098)">
                    <path d="M1231.83,957.926C1229.87,959.742 1226.63,960.765 1223.98,960.431C1220.49,959.992 1218.5,958.311 1215.91,955.922C1212.69,952.945 1209.63,948.3 1213.31,944.063C1216.54,940.346 1222,940.361 1225.58,942.63C1227.97,944.147 1232.14,949.717 1232.1,951.503C1232.08,952.704 1232.67,957.072 1231.83,957.926Z" style="fill:rgb(246,190,35);"/>
                </g>
                <g transform="matrix(0.746603,0.665269,-0.665269,0.746603,1179.08,-601.098)">
                    <path d="M1249.78,950.164C1245.39,953.92 1241.03,949.038 1238.54,945.68C1234.46,940.183 1235.62,932.506 1240.22,927.68C1242.53,925.264 1246.13,928.129 1247.76,929.896C1251.35,933.808 1252.25,939.623 1251.8,944.723C1251.65,946.36 1251.2,948.951 1249.78,950.164Z" style="fill:rgb(246,190,35);"/>
                </g>
                <g transform="matrix(0.746603,0.665269,-0.665269,0.746603,1179.08,-601.098)">
                    <path d="M1272.95,951.818C1271.03,954.488 1265.67,956.168 1263.83,952.566C1262.19,949.369 1262.39,944.223 1264.5,941.274C1264.7,940.996 1265.02,940.822 1265.34,940.689C1267.67,939.704 1268.83,940.183 1270.48,942.041C1271.86,943.603 1272.82,945.545 1273.26,947.582C1273.55,948.929 1273.83,950.592 1272.95,951.818Z" style="fill:rgb(246,190,35);"/>
                </g>
            </g>
            <g transform="matrix(0.942149,0.335195,-0.335195,0.942149,394.237,440.37)">
                <g transform="matrix(0.746603,0.665269,-0.665269,0.746603,1179.08,-601.098)">
                    <path d="M1257.47,988.774C1254.29,990.32 1251.74,994.003 1249.57,996.533C1248.38,997.923 1245.5,1002.08 1242.9,1002.3C1241.81,1002.39 1240.73,1001.71 1239.86,1001.04C1236.48,998.45 1234.18,993.361 1233.36,989.296C1231.31,979.063 1234.61,964.821 1244.91,960.089C1255.05,955.425 1267.38,961.249 1275.15,971.512C1277.63,974.783 1281.19,978.354 1279.51,982.683C1278.33,985.708 1276.12,986.24 1273.04,986.614C1267.91,987.236 1262.3,986.431 1257.47,988.774Z" style="fill:rgb(246,190,35);"/>
                </g>
                <g transform="matrix(0.746603,0.665269,-0.665269,0.746603,1179.08,-601.098)">
                    <path d="M1227.53,975.759C1226.52,977.392 1223.16,979.298 1220.88,979.721C1218.61,980.144 1216.08,978.61 1214.57,977.265C1213.07,975.92 1212.21,972.596 1212.78,970.607C1213.36,968.561 1214.86,966.315 1217.37,966.027C1219.89,965.739 1224.53,968.507 1226.22,970.129C1227.46,971.32 1228.43,974.294 1227.53,975.759Z" style="fill:rgb(246,190,35);"/>
                </g>
                <g transform="matrix(0.746603,0.665269,-0.665269,0.746603,1179.08,-601.098)">
                    <path d="M1231.83,957.926C1229.87,959.742 1226.63,960.765 1223.98,960.431C1220.49,959.992 1218.5,958.311 1215.91,955.922C1212.69,952.945 1209.63,948.3 1213.31,944.063C1216.54,940.346 1222,940.361 1225.58,942.63C1227.97,944.147 1232.14,949.717 1232.1,951.503C1232.08,952.704 1232.67,957.072 1231.83,957.926Z" style="fill:rgb(246,190,35);"/>
                </g>
                <g transform="matrix(0.746603,0.665269,-0.665269,0.746603,1179.08,-601.098)">
                    <path d="M1249.78,950.164C1245.39,953.92 1241.03,949.038 1238.54,945.68C1234.46,940.183 1235.62,932.506 1240.22,927.68C1242.53,925.264 1246.13,928.129 1247.76,929.896C1251.35,933.808 1252.25,939.623 1251.8,944.723C1251.65,946.36 1251.2,948.951 1249.78,950.164Z" style="fill:rgb(246,190,35);"/>
                </g>
                <g transform="matrix(0.746603,0.665269,-0.665269,0.746603,1179.08,-601.098)">
                    <path d="M1272.95,951.818C1271.03,954.488 1265.67,956.168 1263.83,952.566C1262.19,949.369 1262.39,944.223 1264.5,941.274C1264.7,940.996 1265.02,940.822 1265.34,940.689C1267.67,939.704 1268.83,940.183 1270.48,942.041C1271.86,943.603 1272.82,945.545 1273.26,947.582C1273.55,948.929 1273.83,950.592 1272.95,951.818Z" style="fill:rgb(246,190,35);"/>
                </g>
            </g>
            <g transform="matrix(-0.15385,-0.988094,0.988094,-0.15385,583.606,3519.7)">
                <g transform="matrix(0.746603,0.665269,-0.665269,0.746603,1179.08,-601.098)">
                    <path d="M1257.47,988.774C1254.29,990.32 1251.74,994.003 1249.57,996.533C1248.38,997.923 1245.5,1002.08 1242.9,1002.3C1241.81,1002.39 1240.73,1001.71 1239.86,1001.04C1236.48,998.45 1234.18,993.361 1233.36,989.296C1231.31,979.063 1234.61,964.821 1244.91,960.089C1255.05,955.425 1267.38,961.249 1275.15,971.512C1277.63,974.783 1281.19,978.354 1279.51,982.683C1278.33,985.708 1276.12,986.24 1273.04,986.614C1267.91,987.236 1262.3,986.431 1257.47,988.774Z" style="fill:rgb(246,190,35);"/>
                </g>
                <g transform="matrix(0.746603,0.665269,-0.665269,0.746603,1179.08,-601.098)">
                    <path d="M1227.53,975.759C1226.52,977.392 1223.16,979.298 1220.88,979.721C1218.61,980.144 1216.08,978.61 1214.57,977.265C1213.07,975.92 1212.21,972.596 1212.78,970.607C1213.36,968.561 1214.86,966.315 1217.37,966.027C1219.89,965.739 1224.53,968.507 1226.22,970.129C1227.46,971.32 1228.43,974.294 1227.53,975.759Z" style="fill:rgb(246,190,35);"/>
                </g>
                <g transform="matrix(0.746603,0.665269,-0.665269,0.746603,1179.08,-601.098)">
                    <path d="M1231.83,957.926C1229.87,959.742 1226.63,960.765 1223.98,960.431C1220.49,959.992 1218.5,958.311 1215.91,955.922C1212.69,952.945 1209.63,948.3 1213.31,944.063C1216.54,940.346 1222,940.361 1225.58,942.63C1227.97,944.147 1232.14,949.717 1232.1,951.503C1232.08,952.704 1232.67,957.072 1231.83,957.926Z" style="fill:rgb(246,190,35);"/>
                </g>
                <g transform="matrix(0.746603,0.665269,-0.665269,0.746603,1179.08,-601.098)">
                    <path d="M1249.78,950.164C1245.39,953.92 1241.03,949.038 1238.54,945.68C1234.46,940.183 1235.62,932.506 1240.22,927.68C1242.53,925.264 1246.13,928.129 1247.76,929.896C1251.35,933.808 1252.25,939.623 1251.8,944.723C1251.65,946.36 1251.2,948.951 1249.78,950.164Z" style="fill:rgb(246,190,35);"/>
                </g>
                <g transform="matrix(0.746603,0.665269,-0.665269,0.746603,1179.08,-601.098)">
                    <path d="M1272.95,951.818C1271.03,954.488 1265.67,956.168 1263.83,952.566C1262.19,949.369 1262.39,944.223 1264.5,941.274C1264.7,940.996 1265.02,940.822 1265.34,940.689C1267.67,939.704 1268.83,940.183 1270.48,942.041C1271.86,943.603 1272.82,945.545 1273.26,947.582C1273.55,948.929 1273.83,950.592 1272.95,951.818Z" style="fill:rgb(246,190,35);"/>
                </g>
            </g>
            <g transform="matrix(-0.727189,0.686438,-0.686438,-0.727189,3242.61,1648.59)">
                <g transform="matrix(0.746603,0.665269,-0.665269,0.746603,1179.08,-601.098)">
                    <path d="M1257.47,988.774C1254.29,990.32 1251.74,994.003 1249.57,996.533C1248.38,997.923 1245.5,1002.08 1242.9,1002.3C1241.81,1002.39 1240.73,1001.71 1239.86,1001.04C1236.48,998.45 1234.18,993.361 1233.36,989.296C1231.31,979.063 1234.61,964.821 1244.91,960.089C1255.05,955.425 1267.38,961.249 1275.15,971.512C1277.63,974.783 1281.19,978.354 1279.51,982.683C1278.33,985.708 1276.12,986.24 1273.04,986.614C1267.91,987.236 1262.3,986.431 1257.47,988.774Z" style="fill:rgb(246,190,35);"/>
                </g>
                <g transform="matrix(0.746603,0.665269,-0.665269,0.746603,1179.08,-601.098)">
                    <path d="M1227.53,975.759C1226.52,977.392 1223.16,979.298 1220.88,979.721C1218.61,980.144 1216.08,978.61 1214.57,977.265C1213.07,975.92 1212.21,972.596 1212.78,970.607C1213.36,968.561 1214.86,966.315 1217.37,966.027C1219.89,965.739 1224.53,968.507 1226.22,970.129C1227.46,971.32 1228.43,974.294 1227.53,975.759Z" style="fill:rgb(246,190,35);"/>
                </g>
                <g transform="matrix(0.746603,0.665269,-0.665269,0.746603,1179.08,-601.098)">
                    <path d="M1231.83,957.926C1229.87,959.742 1226.63,960.765 1223.98,960.431C1220.49,959.992 1218.5,958.311 1215.91,955.922C1212.69,952.945 1209.63,948.3 1213.31,944.063C1216.54,940.346 1222,940.361 1225.58,942.63C1227.97,944.147 1232.14,949.717 1232.1,951.503C1232.08,952.704 1232.67,957.072 1231.83,957.926Z" style="fill:rgb(246,190,35);"/>
                </g>
                <g transform="matrix(0.746603,0.665269,-0.665269,0.746603,1179.08,-601.098)">
                    <path d="M1249.78,950.164C1245.39,953.92 1241.03,949.038 1238.54,945.68C1234.46,940.183 1235.62,932.506 1240.22,927.68C1242.53,925.264 1246.13,928.129 1247.76,929.896C1251.35,933.808 1252.25,939.623 1251.8,944.723C1251.65,946.36 1251.2,948.951 1249.78,950.164Z" style="fill:rgb(246,190,35);"/>
                </g>
                <g transform="matrix(0.746603,0.665269,-0.665269,0.746603,1179.08,-601.098)">
                    <path d="M1272.95,951.818C1271.03,954.488 1265.67,956.168 1263.83,952.566C1262.19,949.369 1262.39,944.223 1264.5,941.274C1264.7,940.996 1265.02,940.822 1265.34,940.689C1267.67,939.704 1268.83,940.183 1270.48,942.041C1271.86,943.603 1272.82,945.545 1273.26,947.582C1273.55,948.929 1273.83,950.592 1272.95,951.818Z" style="fill:rgb(246,190,35);"/>
                </g>
            </g>
            <g transform="matrix(0.947616,-0.319411,0.319411,0.947616,16.0177,1437.67)">
                <g transform="matrix(0.746603,0.665269,-0.665269,0.746603,1179.08,-601.098)">
                    <path d="M1257.47,988.774C1254.29,990.32 1251.74,994.003 1249.57,996.533C1248.38,997.923 1245.5,1002.08 1242.9,1002.3C1241.81,1002.39 1240.73,1001.71 1239.86,1001.04C1236.48,998.45 1234.18,993.361 1233.36,989.296C1231.31,979.063 1234.61,964.821 1244.91,960.089C1255.05,955.425 1267.38,961.249 1275.15,971.512C1277.63,974.783 1281.19,978.354 1279.51,982.683C1278.33,985.708 1276.12,986.24 1273.04,986.614C1267.91,987.236 1262.3,986.431 1257.47,988.774Z" style="fill:rgb(246,190,35);"/>
                </g>
                <g transform="matrix(0.746603,0.665269,-0.665269,0.746603,1179.08,-601.098)">
                    <path d="M1227.53,975.759C1226.52,977.392 1223.16,979.298 1220.88,979.721C1218.61,980.144 1216.08,978.61 1214.57,977.265C1213.07,975.92 1212.21,972.596 1212.78,970.607C1213.36,968.561 1214.86,966.315 1217.37,966.027C1219.89,965.739 1224.53,968.507 1226.22,970.129C1227.46,971.32 1228.43,974.294 1227.53,975.759Z" style="fill:rgb(246,190,35);"/>
                </g>
                <g transform="matrix(0.746603,0.665269,-0.665269,0.746603,1179.08,-601.098)">
                    <path d="M1231.83,957.926C1229.87,959.742 1226.63,960.765 1223.98,960.431C1220.49,959.992 1218.5,958.311 1215.91,955.922C1212.69,952.945 1209.63,948.3 1213.31,944.063C1216.54,940.346 1222,940.361 1225.58,942.63C1227.97,944.147 1232.14,949.717 1232.1,951.503C1232.08,952.704 1232.67,957.072 1231.83,957.926Z" style="fill:rgb(246,190,35);"/>
                </g>
                <g transform="matrix(0.746603,0.665269,-0.665269,0.746603,1179.08,-601.098)">
                    <path d="M1249.78,950.164C1245.39,953.92 1241.03,949.038 1238.54,945.68C1234.46,940.183 1235.62,932.506 1240.22,927.68C1242.53,925.264 1246.13,928.129 1247.76,929.896C1251.35,933.808 1252.25,939.623 1251.8,944.723C1251.65,946.36 1251.2,948.951 1249.78,950.164Z" style="fill:rgb(246,190,35);"/>
                </g>
            </g>
            <g transform="matrix(0.645301,-0.763928,0.763928,0.645301,24.9802,2621.55)">
                <g transform="matrix(0.746603,0.665269,-0.665269,0.746603,1179.08,-601.098)">
                    <path d="M1257.47,988.774C1254.29,990.32 1251.74,994.003 1249.57,996.533C1248.38,997.923 1245.5,1002.08 1242.9,1002.3C1241.81,1002.39 1240.73,1001.71 1239.86,1001.04C1236.48,998.45 1234.18,993.361 1233.36,989.296C1231.31,979.063 1234.61,964.821 1244.91,960.089C1255.05,955.425 1267.38,961.249 1275.15,971.512C1277.63,974.783 1281.19,978.354 1279.51,982.683C1278.33,985.708 1276.12,986.24 1273.04,986.614C1267.91,987.236 1262.3,986.431 1257.47,988.774Z" style="fill:rgb(246,190,35);"/>
                </g>
                <g transform="matrix(0.746603,0.665269,-0.665269,0.746603,1179.08,-601.098)">
                    <path d="M1227.53,975.759C1226.52,977.392 1223.16,979.298 1220.88,979.721C1218.61,980.144 1216.08,978.61 1214.57,977.265C1213.07,975.92 1212.21,972.596 1212.78,970.607C1213.36,968.561 1214.86,966.315 1217.37,966.027C1219.89,965.739 1224.53,968.507 1226.22,970.129C1227.46,971.32 1228.43,974.294 1227.53,975.759Z" style="fill:rgb(246,190,35);"/>
                </g>
                <g transform="matrix(0.746603,0.665269,-0.665269,0.746603,1179.08,-601.098)">
                    <path d="M1231.83,957.926C1229.87,959.742 1226.63,960.765 1223.98,960.431C1220.49,959.992 1218.5,958.311 1215.91,955.922C1212.69,952.945 1209.63,948.3 1213.31,944.063C1216.54,940.346 1222,940.361 1225.58,942.63C1227.97,944.147 1232.14,949.717 1232.1,951.503C1232.08,952.704 1232.67,957.072 1231.83,957.926Z" style="fill:rgb(246,190,35);"/>
                </g>
                <g transform="matrix(0.746603,0.665269,-0.665269,0.746603,1179.08,-601.098)">
                    <path d="M1249.78,950.164C1245.39,953.92 1241.03,949.038 1238.54,945.68C1234.46,940.183 1235.62,932.506 1240.22,927.68C1242.53,925.264 1246.13,928.129 1247.76,929.896C1251.35,933.808 1252.25,939.623 1251.8,944.723C1251.65,946.36 1251.2,948.951 1249.78,950.164Z" style="fill:rgb(246,190,35);"/>
                </g>
                <g transform="matrix(0.746603,0.665269,-0.665269,0.746603,1179.08,-601.098)">
                    <path d="M1272.95,951.818C1271.03,954.488 1265.67,956.168 1263.83,952.566C1262.19,949.369 1262.39,944.223 1264.5,941.274C1264.7,940.996 1265.02,940.822 1265.34,940.689C1267.67,939.704 1268.83,940.183 1270.48,942.041C1271.86,943.603 1272.82,945.545 1273.26,947.582C1273.55,948.929 1273.83,950.592 1272.95,951.818Z" style="fill:rgb(246,190,35);"/>
                </g>
            </g>
            <g transform="matrix(0.113576,0.993529,-0.993529,0.113576,1959.66,561.587)">
                <g transform="matrix(0.746603,0.665269,-0.665269,0.746603,1179.08,-601.098)">
                    <path d="M1257.47,988.774C1254.29,990.32 1251.74,994.003 1249.57,996.533C1248.38,997.923 1245.5,1002.08 1242.9,1002.3C1241.81,1002.39 1240.73,1001.71 1239.86,1001.04C1236.48,998.45 1234.18,993.361 1233.36,989.296C1231.31,979.063 1234.61,964.821 1244.91,960.089C1255.05,955.425 1267.38,961.249 1275.15,971.512C1277.63,974.783 1281.19,978.354 1279.51,982.683C1278.33,985.708 1276.12,986.24 1273.04,986.614C1267.91,987.236 1262.3,986.431 1257.47,988.774Z" style="fill:rgb(246,190,35);"/>
                </g>
                <g transform="matrix(0.746603,0.665269,-0.665269,0.746603,1179.08,-601.098)">
                    <path d="M1227.53,975.759C1226.52,977.392 1223.16,979.298 1220.88,979.721C1218.61,980.144 1216.08,978.61 1214.57,977.265C1213.07,975.92 1212.21,972.596 1212.78,970.607C1213.36,968.561 1214.86,966.315 1217.37,966.027C1219.89,965.739 1224.53,968.507 1226.22,970.129C1227.46,971.32 1228.43,974.294 1227.53,975.759Z" style="fill:rgb(246,190,35);"/>
                </g>
                <g transform="matrix(0.746603,0.665269,-0.665269,0.746603,1179.08,-601.098)">
                    <path d="M1231.83,957.926C1229.87,959.742 1226.63,960.765 1223.98,960.431C1220.49,959.992 1218.5,958.311 1215.91,955.922C1212.69,952.945 1209.63,948.3 1213.31,944.063C1216.54,940.346 1222,940.361 1225.58,942.63C1227.97,944.147 1232.14,949.717 1232.1,951.503C1232.08,952.704 1232.67,957.072 1231.83,957.926Z" style="fill:rgb(246,190,35);"/>
                </g>
                <g transform="matrix(0.746603,0.665269,-0.665269,0.746603,1179.08,-601.098)">
                    <path d="M1249.78,950.164C1245.39,953.92 1241.03,949.038 1238.54,945.68C1234.46,940.183 1235.62,932.506 1240.22,927.68C1242.53,925.264 1246.13,928.129 1247.76,929.896C1251.35,933.808 1252.25,939.623 1251.8,944.723C1251.65,946.36 1251.2,948.951 1249.78,950.164Z" style="fill:rgb(246,190,35);"/>
                </g>
            </g>
            <g transform="matrix(-0.330575,-0.94378,0.94378,-0.330575,1011.17,3840.3)">
                <g transform="matrix(0.746603,0.665269,-0.665269,0.746603,1179.08,-601.098)">
                    <path d="M1257.47,988.774C1254.29,990.32 1251.74,994.003 1249.57,996.533C1248.38,997.923 1245.5,1002.08 1242.9,1002.3C1241.81,1002.39 1240.73,1001.71 1239.86,1001.04C1236.48,998.45 1234.18,993.361 1233.36,989.296C1231.31,979.063 1234.61,964.821 1244.91,960.089C1255.05,955.425 1267.38,961.249 1275.15,971.512C1277.63,974.783 1281.19,978.354 1279.51,982.683C1278.33,985.708 1276.12,986.24 1273.04,986.614C1267.91,987.236 1262.3,986.431 1257.47,988.774Z" style="fill:rgb(246,190,35);"/>
                </g>
                <g transform="matrix(0.746603,0.665269,-0.665269,0.746603,1179.08,-601.098)">
                    <path d="M1249.78,950.164C1245.39,953.92 1241.03,949.038 1238.54,945.68C1234.46,940.183 1235.62,932.506 1240.22,927.68C1242.53,925.264 1246.13,928.129 1247.76,929.896C1251.35,933.808 1252.25,939.623 1251.8,944.723C1251.65,946.36 1251.2,948.951 1249.78,950.164Z" style="fill:rgb(246,190,35);"/>
                </g>
                <g transform="matrix(0.746603,0.665269,-0.665269,0.746603,1179.08,-601.098)">
                    <path d="M1272.95,951.818C1271.03,954.488 1265.67,956.168 1263.83,952.566C1262.19,949.369 1262.39,944.223 1264.5,941.274C1264.7,940.996 1265.02,940.822 1265.34,940.689C1267.67,939.704 1268.83,940.183 1270.48,942.041C1271.86,943.603 1272.82,945.545 1273.26,947.582C1273.55,948.929 1273.83,950.592 1272.95,951.818Z" style="fill:rgb(246,190,35);"/>
                </g>
            </g>
            <g transform="matrix(-0.998478,0.0551459,-0.0551459,-0.998478,2463.9,2984.94)">
                <g transform="matrix(0.746603,0.665269,-0.665269,0.746603,1179.08,-601.098)">
                    <path d="M1257.47,988.774C1254.29,990.32 1251.74,994.003 1249.57,996.533C1248.38,997.923 1245.5,1002.08 1242.9,1002.3C1241.81,1002.39 1240.73,1001.71 1239.86,1001.04C1236.48,998.45 1234.18,993.361 1233.36,989.296C1231.31,979.063 1234.61,964.821 1244.91,960.089C1255.05,955.425 1267.38,961.249 1275.15,971.512C1277.63,974.783 1281.19,978.354 1279.51,982.683C1278.33,985.708 1276.12,986.24 1273.04,986.614C1267.91,987.236 1262.3,986.431 1257.47,988.774Z" style="fill:rgb(246,190,35);"/>
                </g>
                <g transform="matrix(0.746603,0.665269,-0.665269,0.746603,1179.08,-601.098)">
                    <path d="M1227.53,975.759C1226.52,977.392 1223.16,979.298 1220.88,979.721C1218.61,980.144 1216.08,978.61 1214.57,977.265C1213.07,975.92 1212.21,972.596 1212.78,970.607C1213.36,968.561 1214.86,966.315 1217.37,966.027C1219.89,965.739 1224.53,968.507 1226.22,970.129C1227.46,971.32 1228.43,974.294 1227.53,975.759Z" style="fill:rgb(246,190,35);"/>
                </g>
                <g transform="matrix(0.746603,0.665269,-0.665269,0.746603,1179.08,-601.098)">
                    <path d="M1249.78,950.164C1245.39,953.92 1241.03,949.038 1238.54,945.68C1234.46,940.183 1235.62,932.506 1240.22,927.68C1242.53,925.264 1246.13,928.129 1247.76,929.896C1251.35,933.808 1252.25,939.623 1251.8,944.723C1251.65,946.36 1251.2,948.951 1249.78,950.164Z" style="fill:rgb(246,190,35);"/>
                </g>
                <g transform="matrix(0.746603,0.665269,-0.665269,0.746603,1179.08,-601.098)">
                    <path d="M1272.95,951.818C1271.03,954.488 1265.67,956.168 1263.83,952.566C1262.19,949.369 1262.39,944.223 1264.5,941.274C1264.7,940.996 1265.02,940.822 1265.34,940.689C1267.67,939.704 1268.83,940.183 1270.48,942.041C1271.86,943.603 1272.82,945.545 1273.26,947.582C1273.55,948.929 1273.83,950.592 1272.95,951.818Z" style="fill:rgb(246,190,35);"/>
                </g>
            </g>
            <g transform="matrix(0.0869859,0.99621,-0.99621,0.0869859,1547.3,570.286)">
                <g transform="matrix(0.746603,0.665269,-0.665269,0.746603,1179.08,-601.098)">
                    <path d="M1257.47,988.774C1254.29,990.32 1251.74,994.003 1249.57,996.533C1248.38,997.923 1245.5,1002.08 1242.9,1002.3C1241.81,1002.39 1240.73,1001.71 1239.86,1001.04C1236.48,998.45 1234.18,993.361 1233.36,989.296C1231.31,979.063 1234.61,964.821 1244.91,960.089C1255.05,955.425 1267.38,961.249 1275.15,971.512C1277.63,974.783 1281.19,978.354 1279.51,982.683C1278.33,985.708 1276.12,986.24 1273.04,986.614C1267.91,987.236 1262.3,986.431 1257.47,988.774Z" style="fill:rgb(246,190,35);"/>
                </g>
                <g transform="matrix(0.746603,0.665269,-0.665269,0.746603,1179.08,-601.098)">
                    <path d="M1227.53,975.759C1226.52,977.392 1223.16,979.298 1220.88,979.721C1218.61,980.144 1216.08,978.61 1214.57,977.265C1213.07,975.92 1212.21,972.596 1212.78,970.607C1213.36,968.561 1214.86,966.315 1217.37,966.027C1219.89,965.739 1224.53,968.507 1226.22,970.129C1227.46,971.32 1228.43,974.294 1227.53,975.759Z" style="fill:rgb(246,190,35);"/>
                </g>
                <g transform="matrix(0.746603,0.665269,-0.665269,0.746603,1179.08,-601.098)">
                    <path d="M1231.83,957.926C1229.87,959.742 1226.63,960.765 1223.98,960.431C1220.49,959.992 1218.5,958.311 1215.91,955.922C1212.69,952.945 1209.63,948.3 1213.31,944.063C1216.54,940.346 1222,940.361 1225.58,942.63C1227.97,944.147 1232.14,949.717 1232.1,951.503C1232.08,952.704 1232.67,957.072 1231.83,957.926Z" style="fill:rgb(246,190,35);"/>
                </g>
                <g transform="matrix(0.746603,0.665269,-0.665269,0.746603,1179.08,-601.098)">
                    <path d="M1249.78,950.164C1245.39,953.92 1241.03,949.038 1238.54,945.68C1234.46,940.183 1235.62,932.506 1240.22,927.68C1242.53,925.264 1246.13,928.129 1247.76,929.896C1251.35,933.808 1252.25,939.623 1251.8,944.723C1251.65,946.36 1251.2,948.951 1249.78,950.164Z" style="fill:rgb(246,190,35);"/>
                </g>
            </g>
            <g transform="matrix(-0.798675,0.601763,-0.601763,-0.798675,2265.35,2008.61)">
                <g transform="matrix(0.746603,0.665269,-0.665269,0.746603,1179.08,-601.098)">
                    <path d="M1257.47,988.774C1254.29,990.32 1251.74,994.003 1249.57,996.533C1248.38,997.923 1245.5,1002.08 1242.9,1002.3C1241.81,1002.39 1240.73,1001.71 1239.86,1001.04C1236.48,998.45 1234.18,993.361 1233.36,989.296C1231.31,979.063 1234.61,964.821 1244.91,960.089C1255.05,955.425 1267.38,961.249 1275.15,971.512C1277.63,974.783 1281.19,978.354 1279.51,982.683C1278.33,985.708 1276.12,986.24 1273.04,986.614C1267.91,987.236 1262.3,986.431 1257.47,988.774Z" style="fill:rgb(246,190,35);"/>
                </g>
                <g transform="matrix(0.746603,0.665269,-0.665269,0.746603,1179.08,-601.098)">
                    <path d="M1227.53,975.759C1226.52,977.392 1223.16,979.298 1220.88,979.721C1218.61,980.144 1216.08,978.61 1214.57,977.265C1213.07,975.92 1212.21,972.596 1212.78,970.607C1213.36,968.561 1214.86,966.315 1217.37,966.027C1219.89,965.739 1224.53,968.507 1226.22,970.129C1227.46,971.32 1228.43,974.294 1227.53,975.759Z" style="fill:rgb(246,190,35);"/>
                </g>
            </g>
            <g transform="matrix(0.999749,0.0223977,-0.0223977,0.999749,-915.898,558.17)">
                <g transform="matrix(0.746603,0.665269,-0.665269,0.746603,1179.08,-601.098)">
                    <path d="M1257.47,988.774C1254.29,990.32 1251.74,994.003 1249.57,996.533C1248.38,997.923 1245.5,1002.08 1242.9,1002.3C1241.81,1002.39 1240.73,1001.71 1239.86,1001.04C1236.48,998.45 1234.18,993.361 1233.36,989.296C1231.31,979.063 1234.61,964.821 1244.91,960.089C1255.05,955.425 1267.38,961.249 1275.15,971.512C1277.63,974.783 1281.19,978.354 1279.51,982.683C1278.33,985.708 1276.12,986.24 1273.04,986.614C1267.91,987.236 1262.3,986.431 1257.47,988.774Z" style="fill:rgb(246,190,35);"/>
                </g>
                <g transform="matrix(0.746603,0.665269,-0.665269,0.746603,1179.08,-601.098)">
                    <path d="M1227.53,975.759C1226.52,977.392 1223.16,979.298 1220.88,979.721C1218.61,980.144 1216.08,978.61 1214.57,977.265C1213.07,975.92 1212.21,972.596 1212.78,970.607C1213.36,968.561 1214.86,966.315 1217.37,966.027C1219.89,965.739 1224.53,968.507 1226.22,970.129C1227.46,971.32 1228.43,974.294 1227.53,975.759Z" style="fill:rgb(246,190,35);"/>
                </g>
                <g transform="matrix(0.746603,0.665269,-0.665269,0.746603,1179.08,-601.098)">
                    <path d="M1231.83,957.926C1229.87,959.742 1226.63,960.765 1223.98,960.431C1220.49,959.992 1218.5,958.311 1215.91,955.922C1212.69,952.945 1209.63,948.3 1213.31,944.063C1216.54,940.346 1222,940.361 1225.58,942.63C1227.97,944.147 1232.14,949.717 1232.1,951.503C1232.08,952.704 1232.67,957.072 1231.83,957.926Z" style="fill:rgb(246,190,35);"/>
                </g>
                <g transform="matrix(0.746603,0.665269,-0.665269,0.746603,1179.08,-601.098)">
                    <path d="M1249.78,950.164C1245.39,953.92 1241.03,949.038 1238.54,945.68C1234.46,940.183 1235.62,932.506 1240.22,927.68C1242.53,925.264 1246.13,928.129 1247.76,929.896C1251.35,933.808 1252.25,939.623 1251.8,944.723C1251.65,946.36 1251.2,948.951 1249.78,950.164Z" style="fill:rgb(246,190,35);"/>
                </g>
                <g transform="matrix(0.746603,0.665269,-0.665269,0.746603,1179.08,-601.098)">
                    <path d="M1272.95,951.818C1271.03,954.488 1265.67,956.168 1263.83,952.566C1262.19,949.369 1262.39,944.223 1264.5,941.274C1264.7,940.996 1265.02,940.822 1265.34,940.689C1267.67,939.704 1268.83,940.183 1270.48,942.041C1271.86,943.603 1272.82,945.545 1273.26,947.582C1273.55,948.929 1273.83,950.592 1272.95,951.818Z" style="fill:rgb(246,190,35);"/>
                </g>
            </g>
            <g transform="matrix(-0.655974,0.754784,-0.754784,-0.655974,2202.83,834.818)">
                <g transform="matrix(0.746603,0.665269,-0.665269,0.746603,1179.08,-601.098)">
                    <path d="M1257.47,988.774C1254.29,990.32 1251.74,994.003 1249.57,996.533C1248.38,997.923 1245.5,1002.08 1242.9,1002.3C1241.81,1002.39 1240.73,1001.71 1239.86,1001.04C1236.48,998.45 1234.18,993.361 1233.36,989.296C1231.31,979.063 1234.61,964.821 1244.91,960.089C1255.05,955.425 1267.38,961.249 1275.15,971.512C1277.63,974.783 1281.19,978.354 1279.51,982.683C1278.33,985.708 1276.12,986.24 1273.04,986.614C1267.91,987.236 1262.3,986.431 1257.47,988.774Z" style="fill:rgb(246,190,35);"/>
                </g>
                <g transform="matrix(0.746603,0.665269,-0.665269,0.746603,1179.08,-601.098)">
                    <path d="M1227.53,975.759C1226.52,977.392 1223.16,979.298 1220.88,979.721C1218.61,980.144 1216.08,978.61 1214.57,977.265C1213.07,975.92 1212.21,972.596 1212.78,970.607C1213.36,968.561 1214.86,966.315 1217.37,966.027C1219.89,965.739 1224.53,968.507 1226.22,970.129C1227.46,971.32 1228.43,974.294 1227.53,975.759Z" style="fill:rgb(246,190,35);"/>
                </g>
                <g transform="matrix(0.746603,0.665269,-0.665269,0.746603,1179.08,-601.098)">
                    <path d="M1231.83,957.926C1229.87,959.742 1226.63,960.765 1223.98,960.431C1220.49,959.992 1218.5,958.311 1215.91,955.922C1212.69,952.945 1209.63,948.3 1213.31,944.063C1216.54,940.346 1222,940.361 1225.58,942.63C1227.97,944.147 1232.14,949.717 1232.1,951.503C1232.08,952.704 1232.67,957.072 1231.83,957.926Z" style="fill:rgb(246,190,35);"/>
                </g>
                <g transform="matrix(0.746603,0.665269,-0.665269,0.746603,1179.08,-601.098)">
                    <path d="M1249.78,950.164C1245.39,953.92 1241.03,949.038 1238.54,945.68C1234.46,940.183 1235.62,932.506 1240.22,927.68C1242.53,925.264 1246.13,928.129 1247.76,929.896C1251.35,933.808 1252.25,939.623 1251.8,944.723C1251.65,946.36 1251.2,948.951 1249.78,950.164Z" style="fill:rgb(246,190,35);"/>
                </g>
                <g transform="matrix(0.746603,0.665269,-0.665269,0.746603,1179.08,-601.098)">
                    <path d="M1272.95,951.818C1271.03,954.488 1265.67,956.168 1263.83,952.566C1262.19,949.369 1262.39,944.223 1264.5,941.274C1264.7,940.996 1265.02,940.822 1265.34,940.689C1267.67,939.704 1268.83,940.183 1270.48,942.041C1271.86,943.603 1272.82,945.545 1273.26,947.582C1273.55,948.929 1273.83,950.592 1272.95,951.818Z" style="fill:rgb(246,190,35);"/>
                </g>
            </g>
            <g transform="matrix(-0.981809,0.189871,-0.189871,-0.981809,2387.36,2301.39)">
                <g transform="matrix(0.746603,0.665269,-0.665269,0.746603,1179.08,-601.098)">
                    <path d="M1257.47,988.774C1254.29,990.32 1251.74,994.003 1249.57,996.533C1248.38,997.923 1245.5,1002.08 1242.9,1002.3C1241.81,1002.39 1240.73,1001.71 1239.86,1001.04C1236.48,998.45 1234.18,993.361 1233.36,989.296C1231.31,979.063 1234.61,964.821 1244.91,960.089C1255.05,955.425 1267.38,961.249 1275.15,971.512C1277.63,974.783 1281.19,978.354 1279.51,982.683C1278.33,985.708 1276.12,986.24 1273.04,986.614C1267.91,987.236 1262.3,986.431 1257.47,988.774Z" style="fill:rgb(246,190,35);"/>
                </g>
                <g transform="matrix(0.746603,0.665269,-0.665269,0.746603,1179.08,-601.098)">
                    <path d="M1227.53,975.759C1226.52,977.392 1223.16,979.298 1220.88,979.721C1218.61,980.144 1216.08,978.61 1214.57,977.265C1213.07,975.92 1212.21,972.596 1212.78,970.607C1213.36,968.561 1214.86,966.315 1217.37,966.027C1219.89,965.739 1224.53,968.507 1226.22,970.129C1227.46,971.32 1228.43,974.294 1227.53,975.759Z" style="fill:rgb(246,190,35);"/>
                </g>
                <g transform="matrix(0.746603,0.665269,-0.665269,0.746603,1179.08,-601.098)">
                    <path d="M1231.83,957.926C1229.87,959.742 1226.63,960.765 1223.98,960.431C1220.49,959.992 1218.5,958.311 1215.91,955.922C1212.69,952.945 1209.63,948.3 1213.31,944.063C1216.54,940.346 1222,940.361 1225.58,942.63C1227.97,944.147 1232.14,949.717 1232.1,951.503C1232.08,952.704 1232.67,957.072 1231.83,957.926Z" style="fill:rgb(246,190,35);"/>
                </g>
                <g transform="matrix(0.746603,0.665269,-0.665269,0.746603,1179.08,-601.098)">
                    <path d="M1249.78,950.164C1245.39,953.92 1241.03,949.038 1238.54,945.68C1234.46,940.183 1235.62,932.506 1240.22,927.68C1242.53,925.264 1246.13,928.129 1247.76,929.896C1251.35,933.808 1252.25,939.623 1251.8,944.723C1251.65,946.36 1251.2,948.951 1249.78,950.164Z" style="fill:rgb(246,190,35);"/>
                </g>
                <g transform="matrix(0.746603,0.665269,-0.665269,0.746603,1179.08,-601.098)">
                    <path d="M1272.95,951.818C1271.03,954.488 1265.67,956.168 1263.83,952.566C1262.19,949.369 1262.39,944.223 1264.5,941.274C1264.7,940.996 1265.02,940.822 1265.34,940.689C1267.67,939.704 1268.83,940.183 1270.48,942.041C1271.86,943.603 1272.82,945.545 1273.26,947.582C1273.55,948.929 1273.83,950.592 1272.95,951.818Z" style="fill:rgb(246,190,35);"/>
                </g>
            </g>
            <g transform="matrix(-0.988078,-0.153951,0.153951,-0.988078,1856.35,2901.66)">
                <g transform="matrix(0.746603,0.665269,-0.665269,0.746603,1179.08,-601.098)">
                    <path d="M1257.47,988.774C1254.29,990.32 1251.74,994.003 1249.57,996.533C1248.38,997.923 1245.5,1002.08 1242.9,1002.3C1241.81,1002.39 1240.73,1001.71 1239.86,1001.04C1236.48,998.45 1234.18,993.361 1233.36,989.296C1231.31,979.063 1234.61,964.821 1244.91,960.089C1255.05,955.425 1267.38,961.249 1275.15,971.512C1277.63,974.783 1281.19,978.354 1279.51,982.683C1278.33,985.708 1276.12,986.24 1273.04,986.614C1267.91,987.236 1262.3,986.431 1257.47,988.774Z" style="fill:rgb(246,190,35);"/>
                </g>
                <g transform="matrix(0.746603,0.665269,-0.665269,0.746603,1179.08,-601.098)">
                    <path d="M1227.53,975.759C1226.52,977.392 1223.16,979.298 1220.88,979.721C1218.61,980.144 1216.08,978.61 1214.57,977.265C1213.07,975.92 1212.21,972.596 1212.78,970.607C1213.36,968.561 1214.86,966.315 1217.37,966.027C1219.89,965.739 1224.53,968.507 1226.22,970.129C1227.46,971.32 1228.43,974.294 1227.53,975.759Z" style="fill:rgb(246,190,35);"/>
                </g>
                <g transform="matrix(0.746603,0.665269,-0.665269,0.746603,1179.08,-601.098)">
                    <path d="M1231.83,957.926C1229.87,959.742 1226.63,960.765 1223.98,960.431C1220.49,959.992 1218.5,958.311 1215.91,955.922C1212.69,952.945 1209.63,948.3 1213.31,944.063C1216.54,940.346 1222,940.361 1225.58,942.63C1227.97,944.147 1232.14,949.717 1232.1,951.503C1232.08,952.704 1232.67,957.072 1231.83,957.926Z" style="fill:rgb(246,190,35);"/>
                </g>
                <g transform="matrix(0.746603,0.665269,-0.665269,0.746603,1179.08,-601.098)">
                    <path d="M1249.78,950.164C1245.39,953.92 1241.03,949.038 1238.54,945.68C1234.46,940.183 1235.62,932.506 1240.22,927.68C1242.53,925.264 1246.13,928.129 1247.76,929.896C1251.35,933.808 1252.25,939.623 1251.8,944.723C1251.65,946.36 1251.2,948.951 1249.78,950.164Z" style="fill:rgb(246,190,35);"/>
                </g>
                <g transform="matrix(0.746603,0.665269,-0.665269,0.746603,1179.08,-601.098)">
                    <path d="M1272.95,951.818C1271.03,954.488 1265.67,956.168 1263.83,952.566C1262.19,949.369 1262.39,944.223 1264.5,941.274C1264.7,940.996 1265.02,940.822 1265.34,940.689C1267.67,939.704 1268.83,940.183 1270.48,942.041C1271.86,943.603 1272.82,945.545 1273.26,947.582C1273.55,948.929 1273.83,950.592 1272.95,951.818Z" style="fill:rgb(246,190,35);"/>
                </g>
            </g>
            <g transform="matrix(0.560876,0.827899,-0.827899,0.560876,511.229,191.606)">
                <g transform="matrix(0.746603,0.665269,-0.665269,0.746603,1179.08,-601.098)">
                    <path d="M1257.47,988.774C1254.29,990.32 1251.74,994.003 1249.57,996.533C1248.38,997.923 1245.5,1002.08 1242.9,1002.3C1241.81,1002.39 1240.73,1001.71 1239.86,1001.04C1236.48,998.45 1234.18,993.361 1233.36,989.296C1231.31,979.063 1234.61,964.821 1244.91,960.089C1255.05,955.425 1267.38,961.249 1275.15,971.512C1277.63,974.783 1281.19,978.354 1279.51,982.683C1278.33,985.708 1276.12,986.24 1273.04,986.614C1267.91,987.236 1262.3,986.431 1257.47,988.774Z" style="fill:rgb(246,190,35);"/>
                </g>
                <g transform="matrix(0.746603,0.665269,-0.665269,0.746603,1179.08,-601.098)">
                    <path d="M1227.53,975.759C1226.52,977.392 1223.16,979.298 1220.88,979.721C1218.61,980.144 1216.08,978.61 1214.57,977.265C1213.07,975.92 1212.21,972.596 1212.78,970.607C1213.36,968.561 1214.86,966.315 1217.37,966.027C1219.89,965.739 1224.53,968.507 1226.22,970.129C1227.46,971.32 1228.43,974.294 1227.53,975.759Z" style="fill:rgb(246,190,35);"/>
                </g>
                <g transform="matrix(0.746603,0.665269,-0.665269,0.746603,1179.08,-601.098)">
                    <path d="M1231.83,957.926C1229.87,959.742 1226.63,960.765 1223.98,960.431C1220.49,959.992 1218.5,958.311 1215.91,955.922C1212.69,952.945 1209.63,948.3 1213.31,944.063C1216.54,940.346 1222,940.361 1225.58,942.63C1227.97,944.147 1232.14,949.717 1232.1,951.503C1232.08,952.704 1232.67,957.072 1231.83,957.926Z" style="fill:rgb(246,190,35);"/>
                </g>
                <g transform="matrix(0.746603,0.665269,-0.665269,0.746603,1179.08,-601.098)">
                    <path d="M1249.78,950.164C1245.39,953.92 1241.03,949.038 1238.54,945.68C1234.46,940.183 1235.62,932.506 1240.22,927.68C1242.53,925.264 1246.13,928.129 1247.76,929.896C1251.35,933.808 1252.25,939.623 1251.8,944.723C1251.65,946.36 1251.2,948.951 1249.78,950.164Z" style="fill:rgb(246,190,35);"/>
                </g>
                <g transform="matrix(0.746603,0.665269,-0.665269,0.746603,1179.08,-601.098)">
                    <path d="M1272.95,951.818C1271.03,954.488 1265.67,956.168 1263.83,952.566C1262.19,949.369 1262.39,944.223 1264.5,941.274C1264.7,940.996 1265.02,940.822 1265.34,940.689C1267.67,939.704 1268.83,940.183 1270.48,942.041C1271.86,943.603 1272.82,945.545 1273.26,947.582C1273.55,948.929 1273.83,950.592 1272.95,951.818Z" style="fill:rgb(246,190,35);"/>
                </g>
            </g>
            <g transform="matrix(0.683782,-0.729686,0.729686,0.683782,-911.154,2310.35)">
                <g transform="matrix(0.746603,0.665269,-0.665269,0.746603,1179.08,-601.098)">
                    <path d="M1257.47,988.774C1254.29,990.32 1251.74,994.003 1249.57,996.533C1248.38,997.923 1245.5,1002.08 1242.9,1002.3C1241.81,1002.39 1240.73,1001.71 1239.86,1001.04C1236.48,998.45 1234.18,993.361 1233.36,989.296C1231.31,979.063 1234.61,964.821 1244.91,960.089C1255.05,955.425 1267.38,961.249 1275.15,971.512C1277.63,974.783 1281.19,978.354 1279.51,982.683C1278.33,985.708 1276.12,986.24 1273.04,986.614C1267.91,987.236 1262.3,986.431 1257.47,988.774Z" style="fill:rgb(246,190,35);"/>
                </g>
                <g transform="matrix(0.746603,0.665269,-0.665269,0.746603,1179.08,-601.098)">
                    <path d="M1227.53,975.759C1226.52,977.392 1223.16,979.298 1220.88,979.721C1218.61,980.144 1216.08,978.61 1214.57,977.265C1213.07,975.92 1212.21,972.596 1212.78,970.607C1213.36,968.561 1214.86,966.315 1217.37,966.027C1219.89,965.739 1224.53,968.507 1226.22,970.129C1227.46,971.32 1228.43,974.294 1227.53,975.759Z" style="fill:rgb(246,190,35);"/>
                </g>
                <g transform="matrix(0.746603,0.665269,-0.665269,0.746603,1179.08,-601.098)">
                    <path d="M1231.83,957.926C1229.87,959.742 1226.63,960.765 1223.98,960.431C1220.49,959.992 1218.5,958.311 1215.91,955.922C1212.69,952.945 1209.63,948.3 1213.31,944.063C1216.54,940.346 1222,940.361 1225.58,942.63C1227.97,944.147 1232.14,949.717 1232.1,951.503C1232.08,952.704 1232.67,957.072 1231.83,957.926Z" style="fill:rgb(246,190,35);"/>
                </g>
                <g transform="matrix(0.746603,0.665269,-0.665269,0.746603,1179.08,-601.098)">
                    <path d="M1249.78,950.164C1245.39,953.92 1241.03,949.038 1238.54,945.68C1234.46,940.183 1235.62,932.506 1240.22,927.68C1242.53,925.264 1246.13,928.129 1247.76,929.896C1251.35,933.808 1252.25,939.623 1251.8,944.723C1251.65,946.36 1251.2,948.951 1249.78,950.164Z" style="fill:rgb(246,190,35);"/>
                </g>
                <g transform="matrix(0.746603,0.665269,-0.665269,0.746603,1179.08,-601.098)">
                    <path d="M1272.95,951.818C1271.03,954.488 1265.67,956.168 1263.83,952.566C1262.19,949.369 1262.39,944.223 1264.5,941.274C1264.7,940.996 1265.02,940.822 1265.34,940.689C1267.67,939.704 1268.83,940.183 1270.48,942.041C1271.86,943.603 1272.82,945.545 1273.26,947.582C1273.55,948.929 1273.83,950.592 1272.95,951.818Z" style="fill:rgb(246,190,35);"/>
                </g>
            </g>
            <g transform="matrix(-0.582222,-0.81303,0.81303,-0.582222,1142.9,3666.67)">
                <g transform="matrix(0.746603,0.665269,-0.665269,0.746603,1179.08,-601.098)">
                    <path d="M1257.47,988.774C1254.29,990.32 1251.74,994.003 1249.57,996.533C1248.38,997.923 1245.5,1002.08 1242.9,1002.3C1241.81,1002.39 1240.73,1001.71 1239.86,1001.04C1236.48,998.45 1234.18,993.361 1233.36,989.296C1231.31,979.063 1234.61,964.821 1244.91,960.089C1255.05,955.425 1267.38,961.249 1275.15,971.512C1277.63,974.783 1281.19,978.354 1279.51,982.683C1278.33,985.708 1276.12,986.24 1273.04,986.614C1267.91,987.236 1262.3,986.431 1257.47,988.774Z" style="fill:rgb(246,190,35);"/>
                </g>
                <g transform="matrix(0.746603,0.665269,-0.665269,0.746603,1179.08,-601.098)">
                    <path d="M1227.53,975.759C1226.52,977.392 1223.16,979.298 1220.88,979.721C1218.61,980.144 1216.08,978.61 1214.57,977.265C1213.07,975.92 1212.21,972.596 1212.78,970.607C1213.36,968.561 1214.86,966.315 1217.37,966.027C1219.89,965.739 1224.53,968.507 1226.22,970.129C1227.46,971.32 1228.43,974.294 1227.53,975.759Z" style="fill:rgb(246,190,35);"/>
                </g>
                <g transform="matrix(0.746603,0.665269,-0.665269,0.746603,1179.08,-601.098)">
                    <path d="M1231.83,957.926C1229.87,959.742 1226.63,960.765 1223.98,960.431C1220.49,959.992 1218.5,958.311 1215.91,955.922C1212.69,952.945 1209.63,948.3 1213.31,944.063C1216.54,940.346 1222,940.361 1225.58,942.63C1227.97,944.147 1232.14,949.717 1232.1,951.503C1232.08,952.704 1232.67,957.072 1231.83,957.926Z" style="fill:rgb(246,190,35);"/>
                </g>
                <g transform="matrix(0.746603,0.665269,-0.665269,0.746603,1179.08,-601.098)">
                    <path d="M1249.78,950.164C1245.39,953.92 1241.03,949.038 1238.54,945.68C1234.46,940.183 1235.62,932.506 1240.22,927.68C1242.53,925.264 1246.13,928.129 1247.76,929.896C1251.35,933.808 1252.25,939.623 1251.8,944.723C1251.65,946.36 1251.2,948.951 1249.78,950.164Z" style="fill:rgb(246,190,35);"/>
                </g>
                <g transform="matrix(0.746603,0.665269,-0.665269,0.746603,1179.08,-601.098)">
                    <path d="M1272.95,951.818C1271.03,954.488 1265.67,956.168 1263.83,952.566C1262.19,949.369 1262.39,944.223 1264.5,941.274C1264.7,940.996 1265.02,940.822 1265.34,940.689C1267.67,939.704 1268.83,940.183 1270.48,942.041C1271.86,943.603 1272.82,945.545 1273.26,947.582C1273.55,948.929 1273.83,950.592 1272.95,951.818Z" style="fill:rgb(246,190,35);"/>
                </g>
            </g>
            <g transform="matrix(0.678192,-0.734885,0.734885,0.678192,-444.735,1404.7)">
                <g transform="matrix(0.746603,0.665269,-0.665269,0.746603,1179.08,-601.098)">
                    <path d="M1257.47,988.774C1254.29,990.32 1251.74,994.003 1249.57,996.533C1248.38,997.923 1245.5,1002.08 1242.9,1002.3C1241.81,1002.39 1240.73,1001.71 1239.86,1001.04C1236.48,998.45 1234.18,993.361 1233.36,989.296C1231.31,979.063 1234.61,964.821 1244.91,960.089C1255.05,955.425 1267.38,961.249 1275.15,971.512C1277.63,974.783 1281.19,978.354 1279.51,982.683C1278.33,985.708 1276.12,986.24 1273.04,986.614C1267.91,987.236 1262.3,986.431 1257.47,988.774Z" style="fill:rgb(246,190,35);"/>
                </g>
                <g transform="matrix(0.746603,0.665269,-0.665269,0.746603,1179.08,-601.098)">
                    <path d="M1227.53,975.759C1226.52,977.392 1223.16,979.298 1220.88,979.721C1218.61,980.144 1216.08,978.61 1214.57,977.265C1213.07,975.92 1212.21,972.596 1212.78,970.607C1213.36,968.561 1214.86,966.315 1217.37,966.027C1219.89,965.739 1224.53,968.507 1226.22,970.129C1227.46,971.32 1228.43,974.294 1227.53,975.759Z" style="fill:rgb(246,190,35);"/>
                </g>
                <g transform="matrix(0.746603,0.665269,-0.665269,0.746603,1179.08,-601.098)">
                    <path d="M1231.83,957.926C1229.87,959.742 1226.63,960.765 1223.98,960.431C1220.49,959.992 1218.5,958.311 1215.91,955.922C1212.69,952.945 1209.63,948.3 1213.31,944.063C1216.54,940.346 1222,940.361 1225.58,942.63C1227.97,944.147 1232.14,949.717 1232.1,951.503C1232.08,952.704 1232.67,957.072 1231.83,957.926Z" style="fill:rgb(246,190,35);"/>
                </g>
                <g transform="matrix(0.746603,0.665269,-0.665269,0.746603,1179.08,-601.098)">
                    <path d="M1249.78,950.164C1245.39,953.92 1241.03,949.038 1238.54,945.68C1234.46,940.183 1235.62,932.506 1240.22,927.68C1242.53,925.264 1246.13,928.129 1247.76,929.896C1251.35,933.808 1252.25,939.623 1251.8,944.723C1251.65,946.36 1251.2,948.951 1249.78,950.164Z" style="fill:rgb(246,190,35);"/>
                </g>
                <g transform="matrix(0.746603,0.665269,-0.665269,0.746603,1179.08,-601.098)">
                    <path d="M1272.95,951.818C1271.03,954.488 1265.67,956.168 1263.83,952.566C1262.19,949.369 1262.39,944.223 1264.5,941.274C1264.7,940.996 1265.02,940.822 1265.34,940.689C1267.67,939.704 1268.83,940.183 1270.48,942.041C1271.86,943.603 1272.82,945.545 1273.26,947.582C1273.55,948.929 1273.83,950.592 1272.95,951.818Z" style="fill:rgb(246,190,35);"/>
                </g>
            </g>
            <g transform="matrix(0.987976,-0.154609,0.154609,0.987976,-572.842,239.064)">
                <g transform="matrix(0.746603,0.665269,-0.665269,0.746603,1179.08,-601.098)">
                    <path d="M1257.47,988.774C1254.29,990.32 1251.74,994.003 1249.57,996.533C1248.38,997.923 1245.5,1002.08 1242.9,1002.3C1241.81,1002.39 1240.73,1001.71 1239.86,1001.04C1236.48,998.45 1234.18,993.361 1233.36,989.296C1231.31,979.063 1234.61,964.821 1244.91,960.089C1255.05,955.425 1267.38,961.249 1275.15,971.512C1277.63,974.783 1281.19,978.354 1279.51,982.683C1278.33,985.708 1276.12,986.24 1273.04,986.614C1267.91,987.236 1262.3,986.431 1257.47,988.774Z" style="fill:rgb(246,190,35);"/>
                </g>
                <g transform="matrix(0.746603,0.665269,-0.665269,0.746603,1179.08,-601.098)">
                    <path d="M1227.53,975.759C1226.52,977.392 1223.16,979.298 1220.88,979.721C1218.61,980.144 1216.08,978.61 1214.57,977.265C1213.07,975.92 1212.21,972.596 1212.78,970.607C1213.36,968.561 1214.86,966.315 1217.37,966.027C1219.89,965.739 1224.53,968.507 1226.22,970.129C1227.46,971.32 1228.43,974.294 1227.53,975.759Z" style="fill:rgb(246,190,35);"/>
                </g>
                <g transform="matrix(0.746603,0.665269,-0.665269,0.746603,1179.08,-601.098)">
                    <path d="M1231.83,957.926C1229.87,959.742 1226.63,960.765 1223.98,960.431C1220.49,959.992 1218.5,958.311 1215.91,955.922C1212.69,952.945 1209.63,948.3 1213.31,944.063C1216.54,940.346 1222,940.361 1225.58,942.63C1227.97,944.147 1232.14,949.717 1232.1,951.503C1232.08,952.704 1232.67,957.072 1231.83,957.926Z" style="fill:rgb(246,190,35);"/>
                </g>
                <g transform="matrix(0.746603,0.665269,-0.665269,0.746603,1179.08,-601.098)">
                    <path d="M1249.78,950.164C1245.39,953.92 1241.03,949.038 1238.54,945.68C1234.46,940.183 1235.62,932.506 1240.22,927.68C1242.53,925.264 1246.13,928.129 1247.76,929.896C1251.35,933.808 1252.25,939.623 1251.8,944.723C1251.65,946.36 1251.2,948.951 1249.78,950.164Z" style="fill:rgb(246,190,35);"/>
                </g>
                <g transform="matrix(0.746603,0.665269,-0.665269,0.746603,1179.08,-601.098)">
                    <path d="M1272.95,951.818C1271.03,954.488 1265.67,956.168 1263.83,952.566C1262.19,949.369 1262.39,944.223 1264.5,941.274C1264.7,940.996 1265.02,940.822 1265.34,940.689C1267.67,939.704 1268.83,940.183 1270.48,942.041C1271.86,943.603 1272.82,945.545 1273.26,947.582C1273.55,948.929 1273.83,950.592 1272.95,951.818Z" style="fill:rgb(246,190,35);"/>
                </g>
            </g>
            <g transform="matrix(-0.968659,0.248395,-0.248395,-0.968659,2444.32,1513)">
                <g transform="matrix(0.746603,0.665269,-0.665269,0.746603,1179.08,-601.098)">
                    <path d="M1257.47,988.774C1254.29,990.32 1251.74,994.003 1249.57,996.533C1248.38,997.923 1245.5,1002.08 1242.9,1002.3C1241.81,1002.39 1240.73,1001.71 1239.86,1001.04C1236.48,998.45 1234.18,993.361 1233.36,989.296C1231.31,979.063 1234.61,964.821 1244.91,960.089C1255.05,955.425 1267.38,961.249 1275.15,971.512C1277.63,974.783 1281.19,978.354 1279.51,982.683C1278.33,985.708 1276.12,986.24 1273.04,986.614C1267.91,987.236 1262.3,986.431 1257.47,988.774Z" style="fill:rgb(246,190,35);"/>
                </g>
                <g transform="matrix(0.746603,0.665269,-0.665269,0.746603,1179.08,-601.098)">
                    <path d="M1227.53,975.759C1226.52,977.392 1223.16,979.298 1220.88,979.721C1218.61,980.144 1216.08,978.61 1214.57,977.265C1213.07,975.92 1212.21,972.596 1212.78,970.607C1213.36,968.561 1214.86,966.315 1217.37,966.027C1219.89,965.739 1224.53,968.507 1226.22,970.129C1227.46,971.32 1228.43,974.294 1227.53,975.759Z" style="fill:rgb(246,190,35);"/>
                </g>
                <g transform="matrix(0.746603,0.665269,-0.665269,0.746603,1179.08,-601.098)">
                    <path d="M1231.83,957.926C1229.87,959.742 1226.63,960.765 1223.98,960.431C1220.49,959.992 1218.5,958.311 1215.91,955.922C1212.69,952.945 1209.63,948.3 1213.31,944.063C1216.54,940.346 1222,940.361 1225.58,942.63C1227.97,944.147 1232.14,949.717 1232.1,951.503C1232.08,952.704 1232.67,957.072 1231.83,957.926Z" style="fill:rgb(246,190,35);"/>
                </g>
                <g transform="matrix(0.746603,0.665269,-0.665269,0.746603,1179.08,-601.098)">
                    <path d="M1249.78,950.164C1245.39,953.92 1241.03,949.038 1238.54,945.68C1234.46,940.183 1235.62,932.506 1240.22,927.68C1242.53,925.264 1246.13,928.129 1247.76,929.896C1251.35,933.808 1252.25,939.623 1251.8,944.723C1251.65,946.36 1251.2,948.951 1249.78,950.164Z" style="fill:rgb(246,190,35);"/>
                </g>
                <g transform="matrix(0.746603,0.665269,-0.665269,0.746603,1179.08,-601.098)">
                    <path d="M1272.95,951.818C1271.03,954.488 1265.67,956.168 1263.83,952.566C1262.19,949.369 1262.39,944.223 1264.5,941.274C1264.7,940.996 1265.02,940.822 1265.34,940.689C1267.67,939.704 1268.83,940.183 1270.48,942.041C1271.86,943.603 1272.82,945.545 1273.26,947.582C1273.55,948.929 1273.83,950.592 1272.95,951.818Z" style="fill:rgb(246,190,35);"/>
                </g>
            </g>
            <g transform="matrix(0.609027,-0.793149,0.793149,0.609027,-1101.74,1529.83)">
                <g transform="matrix(0.746603,0.665269,-0.665269,0.746603,1179.08,-601.098)">
                    <path d="M1257.47,988.774C1254.29,990.32 1251.74,994.003 1249.57,996.533C1248.38,997.923 1245.5,1002.08 1242.9,1002.3C1241.81,1002.39 1240.73,1001.71 1239.86,1001.04C1236.48,998.45 1234.18,993.361 1233.36,989.296C1231.31,979.063 1234.61,964.821 1244.91,960.089C1255.05,955.425 1267.38,961.249 1275.15,971.512C1277.63,974.783 1281.19,978.354 1279.51,982.683C1278.33,985.708 1276.12,986.24 1273.04,986.614C1267.91,987.236 1262.3,986.431 1257.47,988.774Z" style="fill:rgb(246,190,35);"/>
                </g>
                <g transform="matrix(0.746603,0.665269,-0.665269,0.746603,1179.08,-601.098)">
                    <path d="M1227.53,975.759C1226.52,977.392 1223.16,979.298 1220.88,979.721C1218.61,980.144 1216.08,978.61 1214.57,977.265C1213.07,975.92 1212.21,972.596 1212.78,970.607C1213.36,968.561 1214.86,966.315 1217.37,966.027C1219.89,965.739 1224.53,968.507 1226.22,970.129C1227.46,971.32 1228.43,974.294 1227.53,975.759Z" style="fill:rgb(246,190,35);"/>
                </g>
                <g transform="matrix(0.746603,0.665269,-0.665269,0.746603,1179.08,-601.098)">
                    <path d="M1231.83,957.926C1229.87,959.742 1226.63,960.765 1223.98,960.431C1220.49,959.992 1218.5,958.311 1215.91,955.922C1212.69,952.945 1209.63,948.3 1213.31,944.063C1216.54,940.346 1222,940.361 1225.58,942.63C1227.97,944.147 1232.14,949.717 1232.1,951.503C1232.08,952.704 1232.67,957.072 1231.83,957.926Z" style="fill:rgb(246,190,35);"/>
                </g>
                <g transform="matrix(0.746603,0.665269,-0.665269,0.746603,1179.08,-601.098)">
                    <path d="M1249.78,950.164C1245.39,953.92 1241.03,949.038 1238.54,945.68C1234.46,940.183 1235.62,932.506 1240.22,927.68C1242.53,925.264 1246.13,928.129 1247.76,929.896C1251.35,933.808 1252.25,939.623 1251.8,944.723C1251.65,946.36 1251.2,948.951 1249.78,950.164Z" style="fill:rgb(246,190,35);"/>
                </g>
                <g transform="matrix(0.746603,0.665269,-0.665269,0.746603,1179.08,-601.098)">
                    <path d="M1272.95,951.818C1271.03,954.488 1265.67,956.168 1263.83,952.566C1262.19,949.369 1262.39,944.223 1264.5,941.274C1264.7,940.996 1265.02,940.822 1265.34,940.689C1267.67,939.704 1268.83,940.183 1270.48,942.041C1271.86,943.603 1272.82,945.545 1273.26,947.582C1273.55,948.929 1273.83,950.592 1272.95,951.818Z" style="fill:rgb(246,190,35);"/>
                </g>
            </g>
        </g>
    </g>
</svg>
